<?xml version="1.0" encoding="UTF-8"?>
<!DOCTYPE svg PUBLIC "-//W3C//DTD SVG 1.1//EN" "http://www.w3.org/Graphics/SVG/1.1/DTD/svg11.dtd">
<svg xmlns="http://www.w3.org/2000/svg" version="1.1" width="2000px" height="1500px" style="shape-rendering:geometricPrecision; text-rendering:geometricPrecision; image-rendering:optimizeQuality; fill-rule:evenodd; clip-rule:evenodd" xmlns:xlink="http://www.w3.org/1999/xlink">
<g><path style="opacity:1" fill="#000000" d="M -0.5,-0.5 C 666.167,-0.5 1332.83,-0.5 1999.5,-0.5C 1999.5,499.5 1999.5,999.5 1999.5,1499.5C 1332.83,1499.5 666.167,1499.5 -0.5,1499.5C -0.5,999.5 -0.5,499.5 -0.5,-0.5 Z"/></g>
<g><path style="opacity:1" fill="#f75b35" d="M 986.5,298.5 C 1009.24,297.992 1031.91,298.658 1054.5,300.5C 1054.5,305.5 1054.5,310.5 1054.5,315.5C 1032.2,313.924 1009.87,313.257 987.5,313.5C 984.833,313.5 982.167,313.5 979.5,313.5C 979.5,308.833 979.5,304.167 979.5,299.5C 982.059,299.802 984.393,299.468 986.5,298.5 Z"/></g>
<g><path style="opacity:1" fill="#f66833" d="M 986.5,298.5 C 984.393,299.468 982.059,299.802 979.5,299.5C 979.5,304.167 979.5,308.833 979.5,313.5C 982.167,313.5 984.833,313.5 987.5,313.5C 957.066,315.239 927.066,320.239 897.5,328.5C 897.5,323.167 897.5,317.833 897.5,312.5C 926.512,304.499 956.178,299.833 986.5,298.5 Z"/></g>
<g><path style="opacity:1" fill="#f34d35" d="M 1054.5,300.5 C 1084.27,302.848 1113.27,308.514 1141.5,317.5C 1140.21,319.048 1139.54,321.048 1139.5,323.5C 1139.74,327.12 1140.07,330.453 1140.5,333.5C 1112.23,325.047 1083.56,319.047 1054.5,315.5C 1054.5,310.5 1054.5,305.5 1054.5,300.5 Z"/></g>
<g><path style="opacity:1" fill="#de5b2e" d="M 976.5,318.5 C 977.209,319.404 978.209,319.737 979.5,319.5C 979.5,320.5 979.5,321.5 979.5,322.5C 993.504,322.333 1007.5,322.5 1021.5,323C 1008.83,323.333 996.167,323.667 983.5,324C 988.833,324.333 994.167,324.667 999.5,325C 992.829,325.526 986.163,326.026 979.5,326.5C 977.5,326.5 975.5,326.5 973.5,326.5C 974.681,324.933 976.347,324.099 978.5,324C 974.085,323.274 970.085,324.107 966.5,326.5C 965.262,327.412 963.928,327.579 962.5,327C 963.654,326.086 963.487,325.253 962,324.5C 958.85,325.579 955.684,326.579 952.5,327.5C 951.903,326.861 951.07,326.528 950,326.5C 947.5,327 945,327.5 942.5,328C 943.094,328.464 943.761,328.631 944.5,328.5C 940.684,329.482 936.684,330.149 932.5,330.5C 934.568,329.625 936.568,328.459 938.5,327C 936.167,326.333 933.833,326.333 931.5,327C 930.113,328.683 928.447,329.85 926.5,330.5C 917.106,331.243 908.106,333.243 899.5,336.5C 898.127,336.657 896.793,336.49 895.5,336C 900.953,331.94 906.953,328.94 913.5,327C 934.311,322.717 955.311,319.884 976.5,318.5 Z"/></g>
<g><path style="opacity:1" fill="#f87532" d="M 897.5,312.5 C 897.5,317.833 897.5,323.167 897.5,328.5C 870.748,335.75 845.081,345.75 820.5,358.5C 820.823,352.31 820.49,346.31 819.5,340.5C 844.335,328.219 870.335,318.886 897.5,312.5 Z"/></g>
<g><path style="opacity:1" fill="#1e0e05" d="M 973.5,326.5 C 971.167,326.5 968.833,326.5 966.5,326.5C 970.085,324.107 974.085,323.274 978.5,324C 976.347,324.099 974.681,324.933 973.5,326.5 Z"/></g>
<g><path style="opacity:1" fill="#f25b33" d="M 1054.5,320.5 C 1054.5,325.5 1054.5,330.5 1054.5,335.5C 1049.16,335.313 1043.82,334.98 1038.5,334.5C 1034.45,334.605 1030.45,334.272 1026.5,333.5C 1024.37,332.371 1022.04,332.204 1019.5,333C 1018.62,334.356 1018.29,335.856 1018.5,337.5C 1010.73,335.365 1003.73,336.865 997.5,342C 991.509,342.499 985.509,342.666 979.5,342.5C 979.5,337.167 979.5,331.833 979.5,326.5C 986.163,326.026 992.829,325.526 999.5,325C 994.167,324.667 988.833,324.333 983.5,324C 996.167,323.667 1008.83,323.333 1021.5,323C 1007.5,322.5 993.504,322.333 979.5,322.5C 979.5,321.5 979.5,320.5 979.5,319.5C 978.209,319.737 977.209,319.404 976.5,318.5C 1002.71,316.821 1028.71,317.488 1054.5,320.5 Z"/></g>
<g><path style="opacity:1" fill="#030100" d="M 932.5,330.5 C 930.5,330.5 928.5,330.5 926.5,330.5C 928.447,329.85 930.113,328.683 931.5,327C 933.833,326.333 936.167,326.333 938.5,327C 936.568,328.459 934.568,329.625 932.5,330.5 Z"/></g>
<g><path style="opacity:1" fill="#1d0d04" d="M 952.5,327.5 C 949.873,328.092 947.206,328.425 944.5,328.5C 943.761,328.631 943.094,328.464 942.5,328C 945,327.5 947.5,327 950,326.5C 951.07,326.528 951.903,326.861 952.5,327.5 Z"/></g>
<g><path style="opacity:1" fill="#f44e35" d="M 1054.5,320.5 C 1083.72,322.943 1112.05,328.943 1139.5,338.5C 1139.5,343.167 1139.5,347.833 1139.5,352.5C 1137.67,351.506 1136,351.506 1134.5,352.5C 1132.11,351.985 1129.77,351.319 1127.5,350.5C 1119.02,347.729 1110.52,345.062 1102,342.5C 1101.6,342.728 1101.43,343.062 1101.5,343.5C 1098.92,344.228 1096.25,344.728 1093.5,345C 1095.17,345.333 1096.83,345.667 1098.5,346C 1097.91,346.464 1097.24,346.631 1096.5,346.5C 1082.46,344.715 1068.46,342.715 1054.5,340.5C 1054.5,339.5 1054.5,338.5 1054.5,337.5C 1060.15,338.032 1065.82,338.365 1071.5,338.5C 1074.52,338.665 1077.52,338.498 1080.5,338C 1078.41,337.685 1076.41,337.185 1074.5,336.5C 1072.03,335.366 1069.37,335.199 1066.5,336C 1067.83,336.333 1069.17,336.667 1070.5,337C 1064.98,337.214 1059.65,336.714 1054.5,335.5C 1054.5,330.5 1054.5,325.5 1054.5,320.5 Z"/></g>
<g><path style="opacity:1" fill="#571b15" d="M 1133.5,328.5 C 1135.09,327.379 1136.76,327.546 1138.5,329C 1136.8,329.384 1135.14,329.218 1133.5,328.5 Z"/></g>
<g><path style="opacity:1" fill="#f86933" d="M 966.5,326.5 C 968.833,326.5 971.167,326.5 973.5,326.5C 975.5,326.5 977.5,326.5 979.5,326.5C 979.5,331.833 979.5,337.167 979.5,342.5C 951.758,345.083 924.424,350.083 897.5,357.5C 897.823,350.978 897.49,344.645 896.5,338.5C 897.5,337.833 898.5,337.167 899.5,336.5C 908.727,334.991 917.727,332.991 926.5,330.5C 928.5,330.5 930.5,330.5 932.5,330.5C 936.684,330.149 940.684,329.482 944.5,328.5C 947.206,328.425 949.873,328.092 952.5,327.5C 955.684,326.579 958.85,325.579 962,324.5C 963.487,325.253 963.654,326.086 962.5,327C 963.928,327.579 965.262,327.412 966.5,326.5 Z"/></g>
<g><path style="opacity:1" fill="#f54237" d="M 1141.5,317.5 C 1155.79,321.43 1169.79,326.264 1183.5,332C 1187.08,333.62 1190.08,335.953 1192.5,339C 1200.51,342.336 1208.17,346.17 1215.5,350.5C 1215.5,355.167 1215.5,359.833 1215.5,364.5C 1191.38,352.016 1166.38,341.682 1140.5,333.5C 1140.07,330.453 1139.74,327.12 1139.5,323.5C 1139.54,321.048 1140.21,319.048 1141.5,317.5 Z"/></g>
<g><path style="opacity:1" fill="#211107" d="M 926.5,330.5 C 917.727,332.991 908.727,334.991 899.5,336.5C 908.106,333.243 917.106,331.243 926.5,330.5 Z"/></g>
<g><path style="opacity:1" fill="#000000" d="M 1026.5,333.5 C 1030.45,334.272 1034.45,334.605 1038.5,334.5C 1032.65,335.817 1026.65,335.817 1020.5,334.5C 1022.4,333.534 1024.4,333.201 1026.5,333.5 Z"/></g>
<g><path style="opacity:1" fill="#d94c2e" d="M 1026.5,333.5 C 1024.4,333.201 1022.4,333.534 1020.5,334.5C 1026.65,335.817 1032.65,335.817 1038.5,334.5C 1043.82,334.98 1049.16,335.313 1054.5,335.5C 1059.65,336.714 1064.98,337.214 1070.5,337C 1069.17,336.667 1067.83,336.333 1066.5,336C 1069.37,335.199 1072.03,335.366 1074.5,336.5C 1072.82,336.285 1071.82,336.952 1071.5,338.5C 1065.82,338.365 1060.15,338.032 1054.5,337.5C 1054.5,338.5 1054.5,339.5 1054.5,340.5C 1050.49,340.666 1046.49,340.499 1042.5,340C 1042.83,339.667 1043.17,339.333 1043.5,339C 1041.86,338.399 1040.2,337.899 1038.5,337.5C 1031.9,337.795 1025.23,337.795 1018.5,337.5C 1018.29,335.856 1018.62,334.356 1019.5,333C 1022.04,332.204 1024.37,332.371 1026.5,333.5 Z"/></g>
<g><path style="opacity:1" fill="#090101" d="M 1074.5,336.5 C 1076.41,337.185 1078.41,337.685 1080.5,338C 1077.52,338.498 1074.52,338.665 1071.5,338.5C 1071.82,336.952 1072.82,336.285 1074.5,336.5 Z"/></g>
<g><path style="opacity:1" fill="#f87d30" d="M 819.5,340.5 C 820.49,346.31 820.823,352.31 820.5,358.5C 814.861,361.655 809.194,364.821 803.5,368C 808.857,366.164 814.191,363.997 819.5,361.5C 820.404,362.209 820.737,363.209 820.5,364.5C 812.692,369.403 804.358,373.236 795.5,376C 789.489,381.001 783.156,385.501 776.5,389.5C 776.826,380.651 776.493,371.984 775.5,363.5C 789.56,354.802 804.227,347.135 819.5,340.5 Z"/></g>
<g><path style="opacity:1" fill="#220e07" d="M 1118.5,341.5 C 1120.39,341.087 1122.39,340.753 1124.5,340.5C 1124.74,341.247 1125.07,342.08 1125.5,343C 1122.93,343.609 1120.6,343.109 1118.5,341.5 Z"/></g>
<g><path style="opacity:1" fill="#e76c2e" d="M 863.5,346.5 C 848.822,351.672 834.489,357.672 820.5,364.5C 820.737,363.209 820.404,362.209 819.5,361.5C 827.062,357.472 834.895,353.805 843,350.5C 843.945,350.905 844.612,351.572 845,352.5C 846.648,351.283 848.481,350.45 850.5,350C 849.376,349.751 848.376,349.251 847.5,348.5C 860.067,342.869 872.734,338.536 885.5,335.5C 884.335,336.584 883.002,337.417 881.5,338C 882.5,338.333 883.5,338.667 884.5,339C 877.514,341.606 870.514,344.106 863.5,346.5 Z"/></g>
<g><path style="opacity:1" fill="#993020" d="M 1101.5,343.5 C 1101.59,344.496 1101.25,345.329 1100.5,346C 1101.83,346.333 1103.17,346.667 1104.5,347C 1101.63,347.801 1098.97,347.634 1096.5,346.5C 1097.24,346.631 1097.91,346.464 1098.5,346C 1096.83,345.667 1095.17,345.333 1093.5,345C 1096.25,344.728 1098.92,344.228 1101.5,343.5 Z"/></g>
<g><path style="opacity:1" fill="#150a03" d="M 863.5,346.5 C 863.5,347.167 863.833,347.5 864.5,347.5C 849.139,353.68 834.139,360.68 819.5,368.5C 804.046,375.979 789.38,384.646 775.5,394.5C 761.648,403.018 748.648,412.684 736.5,423.5C 726.167,432.167 715.833,440.833 705.5,449.5C 705.5,449.167 705.5,448.833 705.5,448.5C 715.865,438.134 726.532,428.134 737.5,418.5C 746.469,411.008 755.469,403.508 764.5,396C 769.124,394.85 773.124,392.684 776.5,389.5C 783.156,385.501 789.489,381.001 795.5,376C 804.358,373.236 812.692,369.403 820.5,364.5C 834.489,357.672 848.822,351.672 863.5,346.5 Z"/></g>
<g><path style="opacity:1" fill="#f97532" d="M 896.5,338.5 C 897.49,344.645 897.823,350.978 897.5,357.5C 870.944,365.803 845.277,376.47 820.5,389.5C 820.825,382.313 820.491,375.313 819.5,368.5C 834.139,360.68 849.139,353.68 864.5,347.5C 875.057,344.092 885.723,341.092 896.5,338.5 Z"/></g>
<g><path style="opacity:1" fill="#622018" d="M 1127.5,350.5 C 1129.77,351.319 1132.11,351.985 1134.5,352.5C 1134.08,353.222 1133.42,353.722 1132.5,354C 1133.42,354.278 1134.08,354.778 1134.5,355.5C 1131.22,355.072 1128.22,354.072 1125.5,352.5C 1126.17,351.833 1126.83,351.167 1127.5,350.5 Z"/></g>
<g><path style="opacity:1" fill="#f64238" d="M 1139.5,338.5 C 1166.31,346.243 1191.65,357.243 1215.5,371.5C 1215.5,376.833 1215.5,382.167 1215.5,387.5C 1214.83,387.167 1214.17,386.833 1213.5,386.5C 1207.76,382.298 1201.76,379.298 1195.5,377.5C 1194.17,377.5 1192.83,377.5 1191.5,377.5C 1189.61,376.678 1187.61,375.845 1185.5,375C 1186.83,374.667 1188.17,374.333 1189.5,374C 1188.91,373.536 1188.24,373.369 1187.5,373.5C 1184.02,371.597 1180.35,369.93 1176.5,368.5C 1175.54,367.783 1174.54,366.617 1173.5,365C 1167.81,362.82 1162.15,360.653 1156.5,358.5C 1153.22,358.072 1150.22,357.072 1147.5,355.5C 1144.92,354.512 1142.25,353.512 1139.5,352.5C 1139.5,347.833 1139.5,343.167 1139.5,338.5 Z"/></g>
<g><path style="opacity:1" fill="#af3527" d="M 1125.5,352.5 C 1128.22,354.072 1131.22,355.072 1134.5,355.5C 1138.31,356.16 1141.98,357.326 1145.5,359C 1144.26,359.232 1143.26,359.732 1142.5,360.5C 1132.23,356.909 1121.89,353.409 1111.5,350C 1116.24,350.183 1120.91,351.016 1125.5,352.5 Z"/></g>
<g><path style="opacity:1" fill="#110402" d="M 1147.5,355.5 C 1150.22,357.072 1153.22,358.072 1156.5,358.5C 1156.95,359.458 1157.62,360.292 1158.5,361C 1154.61,359.741 1150.61,358.408 1146.5,357C 1145.29,355.893 1145.62,355.393 1147.5,355.5 Z"/></g>
<g><path style="opacity:1" fill="#df3e31" d="M 1139.5,352.5 C 1142.25,353.512 1144.92,354.512 1147.5,355.5C 1145.62,355.393 1145.29,355.893 1146.5,357C 1150.61,358.408 1154.61,359.741 1158.5,361C 1157.62,360.292 1156.95,359.458 1156.5,358.5C 1162.15,360.653 1167.81,362.82 1173.5,365C 1174.54,366.617 1175.54,367.783 1176.5,368.5C 1175.05,369.825 1175.38,370.658 1177.5,371C 1180.72,372.352 1184.05,373.186 1187.5,373.5C 1188.24,373.369 1188.91,373.536 1189.5,374C 1188.17,374.333 1186.83,374.667 1185.5,375C 1187.61,375.845 1189.61,376.678 1191.5,377.5C 1190.76,377.369 1190.09,377.536 1189.5,378C 1192.17,379.333 1194.83,380.667 1197.5,382C 1179.3,374.762 1160.97,367.595 1142.5,360.5C 1143.26,359.732 1144.26,359.232 1145.5,359C 1141.98,357.326 1138.31,356.16 1134.5,355.5C 1134.08,354.778 1133.42,354.278 1132.5,354C 1133.42,353.722 1134.08,353.222 1134.5,352.5C 1136,351.506 1137.67,351.506 1139.5,352.5 Z"/></g>
<g><path style="opacity:1" fill="#fa7e31" d="M 819.5,368.5 C 820.491,375.313 820.825,382.313 820.5,389.5C 805.305,397.707 790.638,406.707 776.5,416.5C 776.825,408.981 776.492,401.648 775.5,394.5C 789.38,384.646 804.046,375.979 819.5,368.5 Z"/></g>
<g><path style="opacity:1" fill="#5f2f15" d="M 799.5,369.5 C 801.379,369.393 801.712,369.893 800.5,371C 795.698,372.94 795.365,372.44 799.5,369.5 Z"/></g>
<g><path style="opacity:1" fill="#71211a" d="M 1176.5,368.5 C 1180.35,369.93 1184.02,371.597 1187.5,373.5C 1184.05,373.186 1180.72,372.352 1177.5,371C 1175.38,370.658 1175.05,369.825 1176.5,368.5 Z"/></g>
<g><path style="opacity:1" fill="#fa8530" d="M 775.5,363.5 C 776.493,371.984 776.826,380.651 776.5,389.5C 773.124,392.684 769.124,394.85 764.5,396C 755.469,403.508 746.469,411.008 737.5,418.5C 737.827,408.652 737.494,398.986 736.5,389.5C 748.933,380.082 761.933,371.415 775.5,363.5 Z"/></g>
<g><path style="opacity:1" fill="#f33538" d="M 1215.5,350.5 C 1248.53,366.881 1278.53,387.547 1305.5,412.5C 1304.83,417.167 1304.17,421.833 1303.5,426.5C 1281.69,406.193 1258.03,388.359 1232.5,373C 1226.81,370.153 1221.14,367.32 1215.5,364.5C 1215.5,359.833 1215.5,355.167 1215.5,350.5 Z"/></g>
<g><path style="opacity:1" fill="#bb3029" d="M 1213.5,386.5 C 1213.44,387.043 1213.11,387.376 1212.5,387.5C 1206.61,384.392 1200.94,381.059 1195.5,377.5C 1201.76,379.298 1207.76,382.298 1213.5,386.5 Z"/></g>
<g><path style="opacity:1" fill="#fb8b30" d="M 736.5,389.5 C 737.494,398.986 737.827,408.652 737.5,418.5C 726.532,428.134 715.865,438.134 705.5,448.5C 701.5,452.167 697.5,455.833 693.5,459.5C 693.828,448.321 693.495,437.321 692.5,426.5C 706.015,412.75 720.682,400.417 736.5,389.5 Z"/></g>
<g><path style="opacity:1" fill="#f13438" d="M 1215.5,371.5 C 1223.39,375.377 1231.06,379.71 1238.5,384.5C 1255.16,396.84 1271.49,409.673 1287.5,423C 1293.77,428.619 1299.77,434.453 1305.5,440.5C 1304.52,443.287 1304.19,446.287 1304.5,449.5C 1302.54,448.04 1300.7,446.373 1299,444.5C 1298.33,445.167 1298.33,445.833 1299,446.5C 1303.04,450.369 1306.87,454.369 1310.5,458.5C 1309.83,458.5 1309.5,458.833 1309.5,459.5C 1281.3,431.285 1249.97,407.285 1215.5,387.5C 1215.5,382.167 1215.5,376.833 1215.5,371.5 Z"/></g>
<g><path style="opacity:1" fill="#200b06" d="M 1237.5,393.5 C 1237.9,392.475 1238.56,392.308 1239.5,393C 1242.13,394.626 1244.46,396.626 1246.5,399C 1243.32,397.732 1240.32,395.899 1237.5,393.5 Z"/></g>
<g><path style="opacity:1" fill="#fa8530" d="M 775.5,394.5 C 776.492,401.648 776.825,408.981 776.5,416.5C 762.943,426.381 749.943,437.047 737.5,448.5C 737.826,439.983 737.493,431.65 736.5,423.5C 748.648,412.684 761.648,403.018 775.5,394.5 Z"/></g>
<g><path style="opacity:1" fill="#5b1216" d="M 1268.5,416.5 C 1268.9,415.475 1269.56,415.308 1270.5,416C 1271.83,417.333 1273.17,418.667 1274.5,420C 1273.83,420.667 1273.17,420.667 1272.5,420C 1271.29,418.624 1269.96,417.458 1268.5,416.5 Z"/></g>
<g><path style="opacity:1" fill="#fb8b30" d="M 736.5,423.5 C 737.493,431.65 737.826,439.983 737.5,448.5C 731.865,453.303 726.698,458.637 722,464.5C 722.656,469.397 720.489,472.73 715.5,474.5C 714.914,474.291 714.414,473.957 714,473.5C 712.667,474.833 711.333,476.167 710,477.5C 705.018,484.974 699.518,491.974 693.5,498.5C 694.133,486.414 693.466,474.581 691.5,463C 692.044,462.283 692.711,461.783 693.5,461.5C 697.833,457.833 701.833,453.833 705.5,449.5C 715.833,440.833 726.167,432.167 736.5,423.5 Z"/></g>
<g><path style="opacity:1" fill="#f02739" d="M 1305.5,412.5 C 1349.47,451.478 1383.47,497.811 1407.5,551.5C 1406.7,552.952 1406.2,554.618 1406,556.5C 1404.01,552.032 1401.18,548.366 1397.5,545.5C 1387.28,526.061 1375.78,507.394 1363,489.5C 1352.55,477.078 1341.88,465.745 1331,455.5C 1330.54,454.256 1331.04,453.423 1332.5,453C 1321.74,445.407 1312.07,436.574 1303.5,426.5C 1304.17,421.833 1304.83,417.167 1305.5,412.5 Z"/></g>
<g><path style="opacity:1" fill="#d07827" d="M 678.5,439.5 C 674.155,445.509 669.155,450.843 663.5,455.5C 662.167,456.5 660.833,457.5 659.5,458.5C 665.391,450.432 671.891,442.765 679,435.5C 679.195,436.819 679.028,438.153 678.5,439.5 Z"/></g>
<g><path style="opacity:1" fill="#320e0d" d="M 1304.5,449.5 C 1308.23,453.227 1311.57,457.227 1314.5,461.5C 1313.17,460.5 1311.83,459.5 1310.5,458.5C 1306.87,454.369 1303.04,450.369 1299,446.5C 1298.33,445.833 1298.33,445.167 1299,444.5C 1300.7,446.373 1302.54,448.04 1304.5,449.5 Z"/></g>
<g><path style="opacity:1" fill="#8b511a" d="M 663.5,455.5 C 662.925,457.411 661.925,459.078 660.5,460.5C 657.864,463.31 655.364,466.31 653,469.5C 652.722,468.584 652.222,467.918 651.5,467.5C 653.942,464.271 656.608,461.271 659.5,458.5C 660.833,457.5 662.167,456.5 663.5,455.5 Z"/></g>
<g><path style="opacity:1" fill="#93541a" d="M 705.5,448.5 C 705.5,448.833 705.5,449.167 705.5,449.5C 701.833,453.833 697.833,457.833 693.5,461.5C 693.5,460.833 693.5,460.167 693.5,459.5C 697.5,455.833 701.5,452.167 705.5,448.5 Z"/></g>
<g><path style="opacity:1" fill="#fc982e" d="M 660.5,460.5 C 661.495,473.323 661.829,486.323 661.5,499.5C 655.995,507.84 650.995,516.507 646.5,525.5C 651.523,519.133 656.19,512.466 660.5,505.5C 661.496,518.656 661.829,531.99 661.5,545.5C 636.892,588.697 620.226,634.697 611.5,683.5C 611.832,631.997 611.499,580.664 610.5,529.5C 622.169,507.49 635.836,486.823 651.5,467.5C 652.222,467.918 652.722,468.584 653,469.5C 655.364,466.31 657.864,463.31 660.5,460.5 Z"/></g>
<g><path style="opacity:1" fill="#fb912f" d="M 692.5,426.5 C 693.495,437.321 693.828,448.321 693.5,459.5C 693.5,460.167 693.5,460.833 693.5,461.5C 692.711,461.783 692.044,462.283 691.5,463C 693.466,474.581 694.133,486.414 693.5,498.5C 682.018,513.642 671.352,529.308 661.5,545.5C 661.829,531.99 661.496,518.656 660.5,505.5C 665.844,497.471 671.177,489.471 676.5,481.5C 671.5,487.5 666.5,493.5 661.5,499.5C 661.829,486.323 661.495,473.323 660.5,460.5C 661.925,459.078 662.925,457.411 663.5,455.5C 669.155,450.843 674.155,445.509 678.5,439.5C 683.167,435.167 687.833,430.833 692.5,426.5 Z"/></g>
<g><path style="opacity:1" fill="#5a3310" d="M 688.5,465.5 C 689.559,467.07 689.059,468.403 687,469.5C 686.7,467.934 687.2,466.601 688.5,465.5 Z"/></g>
<g><path style="opacity:1" fill="#461012" d="M 1316.5,463.5 C 1319.57,465.569 1321.91,468.236 1323.5,471.5C 1320.43,469.431 1318.09,466.764 1316.5,463.5 Z"/></g>
<g><path style="opacity:1" fill="#45270f" d="M 680.5,476.5 C 681.031,474.456 682.198,472.789 684,471.5C 683.923,473.772 682.757,475.438 680.5,476.5 Z"/></g>
<g><path style="opacity:1" fill="#4d1013" d="M 1323.5,471.5 C 1325.91,472.911 1327.58,474.911 1328.5,477.5C 1326.09,476.089 1324.42,474.089 1323.5,471.5 Z"/></g>
<g><path style="opacity:1" fill="#301b0b" d="M 680.5,476.5 C 679.92,478.749 678.587,480.415 676.5,481.5C 677.08,479.251 678.413,477.585 680.5,476.5 Z"/></g>
<g><path style="opacity:1" fill="#3d0e0f" d="M 1330.5,479.5 C 1332.26,480.262 1333.26,481.596 1333.5,483.5C 1331.74,482.738 1330.74,481.404 1330.5,479.5 Z"/></g>
<g><path style="opacity:1" fill="#da2533" d="M 1310.5,458.5 C 1311.83,459.5 1313.17,460.5 1314.5,461.5C 1315.83,461.5 1316.5,462.167 1316.5,463.5C 1318.09,466.764 1320.43,469.431 1323.5,471.5C 1324.42,474.089 1326.09,476.089 1328.5,477.5C 1329.83,477.5 1330.5,478.167 1330.5,479.5C 1330.74,481.404 1331.74,482.738 1333.5,483.5C 1334.08,485.749 1335.41,487.415 1337.5,488.5C 1338.08,490.749 1339.41,492.415 1341.5,493.5C 1350.48,506.775 1358.98,520.442 1367,534.5C 1367.51,533.473 1368.01,532.473 1368.5,531.5C 1370.07,533.635 1371.4,535.968 1372.5,538.5C 1371.31,538.866 1370.64,539.699 1370.5,541C 1373.29,545.401 1375.95,549.901 1378.5,554.5C 1377.73,555.711 1376.89,555.711 1376,554.5C 1358.29,519.635 1336.12,487.968 1309.5,459.5C 1309.5,458.833 1309.83,458.5 1310.5,458.5 Z"/></g>
<g><path style="opacity:1" fill="#431011" d="M 1333.5,483.5 C 1335.59,484.585 1336.92,486.251 1337.5,488.5C 1335.41,487.415 1334.08,485.749 1333.5,483.5 Z"/></g>
<g><path style="opacity:1" fill="#360f0e" d="M 1337.5,488.5 C 1339.59,489.585 1340.92,491.251 1341.5,493.5C 1339.41,492.415 1338.08,490.749 1337.5,488.5 Z"/></g>
<g><path style="opacity:1" fill="#1e1106" d="M 676.5,481.5 C 671.177,489.471 665.844,497.471 660.5,505.5C 656.19,512.466 651.523,519.133 646.5,525.5C 650.995,516.507 655.995,507.84 661.5,499.5C 666.5,493.5 671.5,487.5 676.5,481.5 Z"/></g>
<g><path style="opacity:1" fill="#f46433" d="M 935.5,499.5 C 950.167,499.5 964.833,499.5 979.5,499.5C 979.5,502.5 979.5,505.5 979.5,508.5C 972.167,508.5 964.833,508.5 957.5,508.5C 953.167,527.167 948.833,545.833 944.5,564.5C 943.957,564.56 943.624,564.893 943.5,565.5C 955.482,566.499 967.482,566.832 979.5,566.5C 979.5,568.167 979.5,569.833 979.5,571.5C 985.026,571.179 990.36,571.512 995.5,572.5C 978.167,572.5 960.833,572.5 943.5,572.5C 947.257,592.93 959.257,600.93 979.5,596.5C 979.5,599.5 979.5,602.5 979.5,605.5C 962.154,610.082 948.654,604.749 939,589.5C 938.051,591.093 936.885,592.426 935.5,593.5C 935.824,586.646 935.491,579.979 934.5,573.5C 934.5,573.167 934.5,572.833 934.5,572.5C 934.5,572.167 934.5,571.833 934.5,571.5C 935.833,569.833 935.833,568.167 934.5,566.5C 934.5,566.167 934.5,565.833 934.5,565.5C 938.991,546.534 943.325,527.534 947.5,508.5C 943.5,508.5 939.5,508.5 935.5,508.5C 935.5,505.5 935.5,502.5 935.5,499.5 Z"/></g>
<g><path style="opacity:1" fill="#f85e35" d="M 979.5,499.5 C 992.5,499.5 1005.5,499.5 1018.5,499.5C 1018.5,502.5 1018.5,505.5 1018.5,508.5C 1014.17,508.5 1009.83,508.5 1005.5,508.5C 1004.5,527.659 1004.17,546.993 1004.5,566.5C 1021.17,566.5 1037.83,566.5 1054.5,566.5C 1054.5,568.167 1054.5,569.833 1054.5,571.5C 1037.83,571.5 1021.17,571.5 1004.5,571.5C 1004.23,573.099 1004.57,574.432 1005.5,575.5C 1006.82,584.147 1011.15,590.813 1018.5,595.5C 1018.5,598.5 1018.5,601.5 1018.5,604.5C 1015.48,604.159 1012.82,602.993 1010.5,601C 1006.96,597.625 1003.62,594.125 1000.5,590.5C 995.407,598.21 988.407,603.21 979.5,605.5C 979.5,602.5 979.5,599.5 979.5,596.5C 989.819,591.871 995.152,583.871 995.5,572.5C 990.36,571.512 985.026,571.179 979.5,571.5C 979.5,569.833 979.5,568.167 979.5,566.5C 985.167,566.5 990.833,566.5 996.5,566.5C 996.83,546.993 996.497,527.659 995.5,508.5C 990.167,508.5 984.833,508.5 979.5,508.5C 979.5,505.5 979.5,502.5 979.5,499.5 Z"/></g>
<g><path style="opacity:1" fill="#ef4b34" d="M 1094.5,499.5 C 1097.81,498.974 1099.97,500.307 1101,503.5C 1109.33,524.5 1117.67,545.5 1126,566.5C 1127.75,586.726 1119.08,600.059 1100,606.5C 1099.67,634.167 1099.33,661.833 1099,689.5C 1098.17,694.492 1096.67,699.159 1094.5,703.5C 1094.5,668.5 1094.5,633.5 1094.5,598.5C 1106.38,596.285 1113.71,589.285 1116.5,577.5C 1117.46,575.735 1117.79,573.735 1117.5,571.5C 1109.83,571.5 1102.17,571.5 1094.5,571.5C 1094.5,569.833 1094.5,568.167 1094.5,566.5C 1101.5,566.5 1108.5,566.5 1115.5,566.5C 1115.74,565.209 1115.4,564.209 1114.5,563.5C 1107.83,546.167 1101.17,528.833 1094.5,511.5C 1094.5,507.5 1094.5,503.5 1094.5,499.5 Z"/></g>
<g><path style="opacity:1" fill="#010000" d="M 935.5,508.5 C 939.5,508.5 943.5,508.5 947.5,508.5C 943.325,527.534 938.991,546.534 934.5,565.5C 917.325,565.83 900.325,565.497 883.5,564.5C 891.213,546.071 899.213,527.738 907.5,509.5C 916.81,508.502 926.143,508.168 935.5,508.5 Z"/></g>
<g><path style="opacity:1" fill="#010000" d="M 979.5,508.5 C 984.833,508.5 990.167,508.5 995.5,508.5C 995.5,527.5 995.5,546.5 995.5,565.5C 978.325,565.83 961.325,565.497 944.5,564.5C 948.833,545.833 953.167,527.167 957.5,508.5C 964.833,508.5 972.167,508.5 979.5,508.5 Z"/></g>
<g><path style="opacity:1" fill="#010000" d="M 1005.5,508.5 C 1009.83,508.5 1014.17,508.5 1018.5,508.5C 1027.09,508.183 1035.59,508.517 1044,509.5C 1048.07,527.872 1052.24,546.206 1056.5,564.5C 1039.67,565.497 1022.67,565.83 1005.5,565.5C 1005.5,546.5 1005.5,527.5 1005.5,508.5 Z"/></g>
<g><path style="opacity:1" fill="#010000" d="M 1094.5,511.5 C 1101.17,528.833 1107.83,546.167 1114.5,563.5C 1098.87,565.485 1082.87,566.151 1066.5,565.5C 1062.01,546.534 1057.68,527.534 1053.5,508.5C 1066.83,508.5 1080.17,508.5 1093.5,508.5C 1093.26,509.791 1093.6,510.791 1094.5,511.5 Z"/></g>
<g><path style="opacity:1" fill="#170503" d="M 1341.5,493.5 C 1347.71,500.228 1353.21,507.562 1358,515.5C 1362.23,520.275 1365.73,525.608 1368.5,531.5C 1368.01,532.473 1367.51,533.473 1367,534.5C 1358.98,520.442 1350.48,506.775 1341.5,493.5 Z"/></g>
<g><path style="opacity:1" fill="#f05234" d="M 1018.5,499.5 C 1043.83,499.5 1069.17,499.5 1094.5,499.5C 1094.5,503.5 1094.5,507.5 1094.5,511.5C 1093.6,510.791 1093.26,509.791 1093.5,508.5C 1080.17,508.5 1066.83,508.5 1053.5,508.5C 1057.68,527.534 1062.01,546.534 1066.5,565.5C 1075.65,566.494 1084.99,566.827 1094.5,566.5C 1094.5,568.167 1094.5,569.833 1094.5,571.5C 1102.17,571.5 1109.83,571.5 1117.5,571.5C 1117.79,573.735 1117.46,575.735 1116.5,577.5C 1116.5,575.833 1116.5,574.167 1116.5,572.5C 1099.83,572.5 1083.17,572.5 1066.5,572.5C 1068.1,589.327 1077.44,597.994 1094.5,598.5C 1094.5,633.5 1094.5,668.5 1094.5,703.5C 1086.57,720.403 1073.24,728.07 1054.5,726.5C 1054.5,723.833 1054.5,721.167 1054.5,718.5C 1050.96,718.813 1047.62,718.479 1044.5,717.5C 1052.92,717.906 1061.25,717.406 1069.5,716C 1080.03,711.127 1086.53,702.96 1089,691.5C 1089.5,663.502 1089.67,635.502 1089.5,607.5C 1077.69,605.928 1068.36,600.261 1061.5,590.5C 1050.35,605.663 1036.02,610.329 1018.5,604.5C 1018.5,601.5 1018.5,598.5 1018.5,595.5C 1033.19,601.249 1045.02,597.582 1054,584.5C 1055.77,580.687 1056.61,576.687 1056.5,572.5C 1039.5,572.5 1022.5,572.5 1005.5,572.5C 1005.5,573.5 1005.5,574.5 1005.5,575.5C 1004.57,574.432 1004.23,573.099 1004.5,571.5C 1021.17,571.5 1037.83,571.5 1054.5,571.5C 1054.5,569.833 1054.5,568.167 1054.5,566.5C 1055.68,566.719 1056.68,566.386 1057.5,565.5C 1057.38,564.893 1057.04,564.56 1056.5,564.5C 1052.24,546.206 1048.07,527.872 1044,509.5C 1035.59,508.517 1027.09,508.183 1018.5,508.5C 1018.5,505.5 1018.5,502.5 1018.5,499.5 Z"/></g>
<g><path style="opacity:1" fill="#ec2238" d="M 1305.5,440.5 C 1377.06,511.978 1417.89,598.645 1428,700.5C 1428.87,716.866 1428.54,733.199 1427,749.5C 1427.5,713.155 1423.16,677.488 1414,642.5C 1413.67,643.167 1413.33,643.833 1413,644.5C 1402.93,607.793 1389.43,572.459 1372.5,538.5C 1371.4,535.968 1370.07,533.635 1368.5,531.5C 1365.73,525.608 1362.23,520.275 1358,515.5C 1353.21,507.562 1347.71,500.228 1341.5,493.5C 1340.92,491.251 1339.59,489.585 1337.5,488.5C 1336.92,486.251 1335.59,484.585 1333.5,483.5C 1333.26,481.596 1332.26,480.262 1330.5,479.5C 1330.5,478.167 1329.83,477.5 1328.5,477.5C 1327.58,474.911 1325.91,472.911 1323.5,471.5C 1321.91,468.236 1319.57,465.569 1316.5,463.5C 1316.5,462.167 1315.83,461.5 1314.5,461.5C 1311.57,457.227 1308.23,453.227 1304.5,449.5C 1304.19,446.287 1304.52,443.287 1305.5,440.5 Z"/></g>
<g><path style="opacity:1" fill="#573312" d="M 646.5,525.5 C 646.539,526.756 646.039,527.756 645,528.5C 644.415,527.002 644.915,526.002 646.5,525.5 Z"/></g>
<g><path style="opacity:1" fill="#fe9f2e" d="M 610.5,529.5 C 611.499,580.664 611.832,631.997 611.5,683.5C 604.903,727.492 604.903,771.492 611.5,815.5C 611.832,863.336 611.499,911.003 610.5,958.5C 606.441,952.059 602.608,945.393 599,938.5C 594.39,927.612 590.056,916.612 586,905.5C 585.333,902.833 584.667,902.833 584,905.5C 581.327,898.981 579.16,892.314 577.5,885.5C 578.833,792.167 578.833,698.833 577.5,605.5C 585.808,578.878 596.808,553.545 610.5,529.5 Z"/></g>
<g><path style="opacity:1" fill="#e31c37" d="M 1397.5,545.5 C 1401.18,548.366 1404.01,552.032 1406,556.5C 1406.2,554.618 1406.7,552.952 1407.5,551.5C 1414.18,563.363 1419.01,576.03 1422,589.5C 1429.17,603.85 1434.33,618.85 1437.5,634.5C 1436.61,637.054 1436.28,639.721 1436.5,642.5C 1435.88,642.389 1435.38,642.056 1435,641.5C 1430.03,619.948 1423.36,598.948 1415,578.5C 1414.67,579.5 1414.33,580.5 1414,581.5C 1408.76,569.359 1403.26,557.359 1397.5,545.5 Z"/></g>
<g><path style="opacity:1" fill="#421a0d" d="M 883.5,564.5 C 900.325,565.497 917.325,565.83 934.5,565.5C 934.5,565.833 934.5,566.167 934.5,566.5C 917.154,566.833 899.821,566.5 882.5,565.5C 882.624,564.893 882.957,564.56 883.5,564.5 Z"/></g>
<g><path style="opacity:1" fill="#592212" d="M 995.5,508.5 C 996.497,527.659 996.83,546.993 996.5,566.5C 990.833,566.5 985.167,566.5 979.5,566.5C 967.482,566.832 955.482,566.499 943.5,565.5C 943.624,564.893 943.957,564.56 944.5,564.5C 961.325,565.497 978.325,565.83 995.5,565.5C 995.5,546.5 995.5,527.5 995.5,508.5 Z"/></g>
<g><path style="opacity:1" fill="#5b2213" d="M 1005.5,508.5 C 1005.5,527.5 1005.5,546.5 1005.5,565.5C 1022.67,565.83 1039.67,565.497 1056.5,564.5C 1057.04,564.56 1057.38,564.893 1057.5,565.5C 1056.68,566.386 1055.68,566.719 1054.5,566.5C 1037.83,566.5 1021.17,566.5 1004.5,566.5C 1004.17,546.993 1004.5,527.659 1005.5,508.5 Z"/></g>
<g><path style="opacity:1" fill="#41140d" d="M 1114.5,563.5 C 1115.4,564.209 1115.74,565.209 1115.5,566.5C 1108.5,566.5 1101.5,566.5 1094.5,566.5C 1084.99,566.827 1075.65,566.494 1066.5,565.5C 1082.87,566.151 1098.87,565.485 1114.5,563.5 Z"/></g>
<g><path style="opacity:1" fill="#c45628" d="M 934.5,571.5 C 934.5,571.833 934.5,572.167 934.5,572.5C 916.833,572.5 899.167,572.5 881.5,572.5C 881.5,574.167 881.5,575.833 881.5,577.5C 880.539,575.735 880.205,573.735 880.5,571.5C 898.5,571.5 916.5,571.5 934.5,571.5 Z"/></g>
<g><path style="opacity:1" fill="#030100" d="M 934.5,572.5 C 934.5,572.833 934.5,573.167 934.5,573.5C 930.446,592.726 918.78,600.559 899.5,597C 890.186,593.52 884.186,587.02 881.5,577.5C 881.5,575.833 881.5,574.167 881.5,572.5C 899.167,572.5 916.833,572.5 934.5,572.5 Z"/></g>
<g><path style="opacity:1" fill="#030100" d="M 995.5,572.5 C 995.152,583.871 989.819,591.871 979.5,596.5C 959.257,600.93 947.257,592.93 943.5,572.5C 960.833,572.5 978.167,572.5 995.5,572.5 Z"/></g>
<g><path style="opacity:1" fill="#030100" d="M 1018.5,595.5 C 1011.15,590.813 1006.82,584.147 1005.5,575.5C 1005.5,574.5 1005.5,573.5 1005.5,572.5C 1022.5,572.5 1039.5,572.5 1056.5,572.5C 1056.61,576.687 1055.77,580.687 1054,584.5C 1045.02,597.582 1033.19,601.249 1018.5,595.5 Z"/></g>
<g><path style="opacity:1" fill="#030100" d="M 1116.5,577.5 C 1113.71,589.285 1106.38,596.285 1094.5,598.5C 1077.44,597.994 1068.1,589.327 1066.5,572.5C 1083.17,572.5 1099.83,572.5 1116.5,572.5C 1116.5,574.167 1116.5,575.833 1116.5,577.5 Z"/></g>
<g><path style="opacity:1" fill="#f46b32" d="M 935.5,499.5 C 935.5,502.5 935.5,505.5 935.5,508.5C 926.143,508.168 916.81,508.502 907.5,509.5C 899.213,527.738 891.213,546.071 883.5,564.5C 882.957,564.56 882.624,564.893 882.5,565.5C 899.821,566.5 917.154,566.833 934.5,566.5C 935.833,568.167 935.833,569.833 934.5,571.5C 916.5,571.5 898.5,571.5 880.5,571.5C 880.205,573.735 880.539,575.735 881.5,577.5C 884.186,587.02 890.186,593.52 899.5,597C 918.78,600.559 930.446,592.726 934.5,573.5C 935.491,579.979 935.824,586.646 935.5,593.5C 928.633,602.101 919.633,606.768 908.5,607.5C 908.333,635.835 908.5,664.169 909,692.5C 913.482,705.483 922.315,713.816 935.5,717.5C 935.264,720.609 935.597,723.609 936.5,726.5C 915.847,722.514 903.514,710.181 899.5,689.5C 900.158,661.147 899.492,633.147 897.5,605.5C 879.188,599.005 870.688,586.005 872,566.5C 881.984,544.197 892.151,522.03 902.5,500C 913.495,499.5 924.495,499.333 935.5,499.5 Z"/></g>
<g><path style="opacity:1" fill="#010000" d="M 979.5,605.5 C 988.407,603.21 995.407,598.21 1000.5,590.5C 1003.62,594.125 1006.96,597.625 1010.5,601C 1012.82,602.993 1015.48,604.159 1018.5,604.5C 1036.02,610.329 1050.35,605.663 1061.5,590.5C 1068.36,600.261 1077.69,605.928 1089.5,607.5C 1089.67,635.502 1089.5,663.502 1089,691.5C 1086.53,702.96 1080.03,711.127 1069.5,716C 1061.25,717.406 1052.92,717.906 1044.5,717.5C 1044.67,696.164 1044.5,674.831 1044,653.5C 1040.38,642.37 1032.88,635.704 1021.5,633.5C 1006.34,632.339 991.006,632.172 975.5,633C 963.28,635.554 955.113,642.721 951,654.5C 950.5,675.497 950.333,696.497 950.5,717.5C 945.5,717.5 940.5,717.5 935.5,717.5C 922.315,713.816 913.482,705.483 909,692.5C 908.5,664.169 908.333,635.835 908.5,607.5C 919.633,606.768 928.633,602.101 935.5,593.5C 936.885,592.426 938.051,591.093 939,589.5C 948.654,604.749 962.154,610.082 979.5,605.5 Z"/></g>
<g><path style="opacity:1" fill="#fca12d" d="M 577.5,605.5 C 578.833,698.833 578.833,792.167 577.5,885.5C 571.073,866.885 566.073,847.885 562.5,828.5C 563.677,824.846 563.511,821.18 562,817.5C 561.768,818.737 561.268,819.737 560.5,820.5C 558.569,809.992 558.235,799.492 559.5,789C 555.792,779.052 554.125,768.719 554.5,758C 555.17,746.645 556.17,735.312 557.5,724C 557.684,716.918 556.851,716.751 555,723.5C 554.833,722.167 554.667,720.833 554.5,719.5C 558.024,693.402 562.191,667.402 567,641.5C 569.833,629.181 573.333,617.181 577.5,605.5 Z"/></g>
<g><path style="opacity:1" fill="#893d1a" d="M 897.5,605.5 C 899.492,633.147 900.158,661.147 899.5,689.5C 898.825,661.598 898.159,633.598 897.5,605.5 Z"/></g>
<g><path style="opacity:1" fill="#ec6031" d="M 1021.5,633.5 C 1007.5,633.5 993.5,633.5 979.5,633.5C 979.5,636.167 979.5,638.833 979.5,641.5C 993.344,641.171 1007.01,641.504 1020.5,642.5C 1005.16,642.333 989.83,642.5 974.5,643C 967.819,645.013 962.986,649.18 960,655.5C 959.5,676.164 959.333,696.831 959.5,717.5C 984.833,717.5 1010.17,717.5 1035.5,717.5C 1017.01,718.497 998.341,718.83 979.5,718.5C 979.5,721.167 979.5,723.833 979.5,726.5C 965.167,726.5 950.833,726.5 936.5,726.5C 935.597,723.609 935.264,720.609 935.5,717.5C 940.5,717.5 945.5,717.5 950.5,717.5C 950.333,696.497 950.5,675.497 951,654.5C 955.113,642.721 963.28,635.554 975.5,633C 991.006,632.172 1006.34,632.339 1021.5,633.5 Z"/></g>
<g><path style="opacity:1" fill="#f95b35" d="M 1021.5,633.5 C 1032.88,635.704 1040.38,642.37 1044,653.5C 1044.5,674.831 1044.67,696.164 1044.5,717.5C 1047.62,718.479 1050.96,718.813 1054.5,718.5C 1054.5,721.167 1054.5,723.833 1054.5,726.5C 1029.5,726.5 1004.5,726.5 979.5,726.5C 979.5,723.833 979.5,721.167 979.5,718.5C 998.341,718.83 1017.01,718.497 1035.5,717.5C 1035.67,696.831 1035.5,676.164 1035,655.5C 1032.52,648.514 1027.68,644.181 1020.5,642.5C 1007.01,641.504 993.344,641.171 979.5,641.5C 979.5,638.833 979.5,636.167 979.5,633.5C 993.5,633.5 1007.5,633.5 1021.5,633.5 Z"/></g>
<g><path style="opacity:1" fill="#991624" d="M 1437.5,634.5 C 1438.41,636.657 1439.07,638.99 1439.5,641.5C 1438.66,641.842 1438.33,642.508 1438.5,643.5C 1437.83,643.167 1437.17,642.833 1436.5,642.5C 1436.28,639.721 1436.61,637.054 1437.5,634.5 Z"/></g>
<g><path style="opacity:1" fill="#010000" d="M 1020.5,642.5 C 1027.68,644.181 1032.52,648.514 1035,655.5C 1035.5,676.164 1035.67,696.831 1035.5,717.5C 1010.17,717.5 984.833,717.5 959.5,717.5C 959.333,696.831 959.5,676.164 960,655.5C 962.986,649.18 967.819,645.013 974.5,643C 989.83,642.5 1005.16,642.333 1020.5,642.5 Z"/></g>
<g><path style="opacity:1" fill="#db1b35" d="M 1439.5,641.5 C 1441.39,648.754 1442.55,656.087 1443,663.5C 1440.11,657.198 1438.61,650.532 1438.5,643.5C 1438.33,642.508 1438.66,641.842 1439.5,641.5 Z"/></g>
<g><path style="opacity:1" fill="#f86034" d="M 982.5,767.5 C 991.754,766.203 997.921,769.87 1001,778.5C 1002.04,783.433 1002.54,788.433 1002.5,793.5C 999.376,821.913 999.876,850.246 1004,878.5C 1005.92,890.675 1011.25,901.009 1020,909.5C 1022.38,916.266 1020.55,921.766 1014.5,926C 996.749,935.542 985.915,930.375 982,910.5C 977.899,879.735 977.399,848.901 980.5,818C 980.47,813.752 980.136,809.586 979.5,805.5C 979.5,793.167 979.5,780.833 979.5,768.5C 980.791,768.737 981.791,768.404 982.5,767.5 Z"/></g>
<g><path style="opacity:1" fill="#f97032" d="M 897.5,772.5 C 897.5,810.5 897.5,848.5 897.5,886.5C 893.455,878.353 890.621,869.686 889,860.5C 886.087,842.936 884.087,825.269 883,807.5C 881.309,803.787 878.475,802.621 874.5,804C 869.785,808.274 866.785,813.441 865.5,819.5C 865.829,805.99 865.496,792.656 864.5,779.5C 870.611,769.945 879.278,766.112 890.5,768C 893.239,769.026 895.572,770.526 897.5,772.5 Z"/></g>
<g><path style="opacity:1" fill="#f76533" d="M 982.5,767.5 C 981.791,768.404 980.791,768.737 979.5,768.5C 979.5,780.833 979.5,793.167 979.5,805.5C 976.398,805.154 973.565,805.821 971,807.5C 969.667,810.167 968.333,812.833 967,815.5C 960.35,840.125 951.35,863.792 940,886.5C 938.483,888.24 936.983,889.906 935.5,891.5C 935.828,879.988 935.495,868.654 934.5,857.5C 943.228,833.485 952.061,809.485 961,785.5C 963.75,779.848 967.583,775.014 972.5,771C 975.561,768.965 978.895,767.799 982.5,767.5 Z"/></g>
<g><path style="opacity:1" fill="#f55535" d="M 1056.5,770.5 C 1065.56,768.046 1071.73,771.046 1075,779.5C 1076.2,803.636 1074.87,827.636 1071,851.5C 1069.79,873.602 1070.63,895.602 1073.5,917.5C 1073.55,921.558 1071.89,924.724 1068.5,927C 1061.53,931.226 1054.2,932.226 1046.5,930C 1044.15,927.867 1043.15,925.2 1043.5,922C 1051.11,885.195 1053.94,848.028 1052,810.5C 1051.12,807.211 1050.45,803.877 1050,800.5C 1047.47,794.782 1044.97,789.116 1042.5,783.5C 1043.1,780.378 1044.77,777.878 1047.5,776C 1050.56,774.141 1053.56,772.308 1056.5,770.5 Z"/></g>
<g><path style="opacity:1" fill="#f86c33" d="M 897.5,772.5 C 900.051,774.578 901.884,777.244 903,780.5C 905.251,797.508 907.584,814.508 910,831.5C 911.265,841.757 913.598,851.757 917,861.5C 919.91,868.266 924.243,869.266 930,864.5C 931.524,862.102 933.024,859.769 934.5,857.5C 935.495,868.654 935.828,879.988 935.5,891.5C 926.844,899.883 916.844,901.717 905.5,897C 901.825,894.172 899.158,890.672 897.5,886.5C 897.5,848.5 897.5,810.5 897.5,772.5 Z"/></g>
<g><path style="opacity:1" fill="#f77632" d="M 864.5,779.5 C 865.496,792.656 865.829,805.99 865.5,819.5C 861.446,836.272 858.613,853.272 857,870.5C 856.328,883.875 856.828,897.209 858.5,910.5C 860.325,920.499 856.325,926.666 846.5,929C 833.635,934.275 827.635,930.108 828.5,916.5C 831.481,874.428 840.647,833.761 856,794.5C 858.339,789.148 861.172,784.148 864.5,779.5 Z"/></g>
<g><path style="opacity:1" fill="#fc982e" d="M 611.5,815.5 C 620.403,864.872 637.07,911.539 661.5,955.5C 661.831,981.672 661.498,1007.67 660.5,1033.5C 640.703,1010.68 624.036,985.681 610.5,958.5C 611.499,911.003 611.832,863.336 611.5,815.5 Z"/></g>
<g><path style="opacity:1" fill="#b56f21" d="M 562.5,828.5 C 561.629,825.997 560.963,823.33 560.5,820.5C 561.268,819.737 561.768,818.737 562,817.5C 563.511,821.18 563.677,824.846 562.5,828.5 Z"/></g>
<g><path style="opacity:1" fill="#f64c36" d="M 1147.5,770.5 C 1162.76,767.268 1169.59,773.268 1168,788.5C 1166.75,795.066 1163.25,799.899 1157.5,803C 1151.52,802.67 1145.52,802.67 1139.5,803C 1135.95,803.774 1132.62,805.107 1129.5,807C 1115.33,817.856 1103.33,830.689 1093.5,845.5C 1101.7,862.383 1112.7,877.216 1126.5,890C 1137.49,900 1150.49,904.666 1165.5,904C 1166.93,904.465 1168.1,905.299 1169,906.5C 1169.84,922.656 1162.18,930.656 1146,930.5C 1138.24,930.36 1131.08,928.193 1124.5,924C 1099.34,905.18 1083.67,880.347 1077.5,849.5C 1078.02,842.114 1080.52,835.447 1085,829.5C 1097.04,812.46 1110.87,796.96 1126.5,783C 1133.27,778.29 1140.27,774.124 1147.5,770.5 Z"/></g>
<g><path style="opacity:1" fill="#f0233a" d="M 1304.5,1086.5 C 1304.83,1078.65 1304.49,1070.98 1303.5,1063.5C 1322.97,1044.85 1340.8,1024.85 1357,1003.5C 1366.5,989.167 1375.5,974.501 1384,959.5C 1410.01,911.79 1425.35,860.79 1430,806.5C 1431.78,788.21 1432.78,769.877 1433,751.5C 1436.98,784.305 1435.98,816.972 1430,849.5C 1422.08,892.685 1408.25,933.852 1388.5,973C 1388.83,973.5 1389.17,974 1389.5,974.5C 1390.62,973.167 1391.95,972.667 1393.5,973C 1385.22,987.945 1375.39,1001.78 1364,1014.5C 1352.3,1034.87 1337.63,1052.87 1320,1068.5C 1316.09,1075.58 1310.92,1081.58 1304.5,1086.5 Z"/></g>
<g><path style="opacity:1" fill="#fc922f" d="M 661.5,955.5 C 671.352,971.692 682.018,987.358 693.5,1002.5C 693.831,1025.01 693.497,1047.34 692.5,1069.5C 680.904,1058.29 670.237,1046.29 660.5,1033.5C 661.498,1007.67 661.831,981.672 661.5,955.5 Z"/></g>
<g><path style="opacity:1" fill="#eb5932" d="M 1006.5,981.5 C 1007.78,978.396 1007.78,975.396 1006.5,972.5C 1005.76,972.631 1005.09,972.464 1004.5,972C 1006.13,971.506 1007.8,971.34 1009.5,971.5C 1009.5,978.5 1009.5,985.5 1009.5,992.5C 1010.55,992.351 1011.55,992.517 1012.5,993C 1010.87,993.494 1009.2,993.66 1007.5,993.5C 1007.38,989.509 1007.05,985.509 1006.5,981.5 Z"/></g>
<g><path style="opacity:1" fill="#cf452c" d="M 1069.5,972.5 C 1070.92,971.549 1072.59,971.216 1074.5,971.5C 1073.89,978.948 1074.56,986.115 1076.5,993C 1074.17,993.667 1071.83,993.667 1069.5,993C 1070.79,989.767 1071.45,986.267 1071.5,982.5C 1071.49,978.761 1070.82,975.428 1069.5,972.5 Z"/></g>
<g><path style="opacity:1" fill="#d2412d" d="M 1101.5,972.5 C 1102.92,971.549 1104.59,971.216 1106.5,971.5C 1106.93,976.978 1106.93,982.311 1106.5,987.5C 1106.61,989.641 1107.28,991.475 1108.5,993C 1106.17,993.667 1103.83,993.667 1101.5,993C 1102.79,989.767 1103.45,986.267 1103.5,982.5C 1103.49,978.761 1102.82,975.428 1101.5,972.5 Z"/></g>
<g><path style="opacity:1" fill="#cc5829" d="M 909.5,972.5 C 912.861,973.203 913.194,974.537 910.5,976.5C 908.358,975.563 908.024,974.23 909.5,972.5 Z"/></g>
<g><path style="opacity:1" fill="#ea5e31" d="M 963.5,972.5 C 962.85,974.435 962.517,976.435 962.5,978.5C 962.5,979.167 962.5,979.833 962.5,980.5C 962.5,984.5 962.5,988.5 962.5,992.5C 964.044,993.728 962.377,993.894 957.5,993C 958.416,992.722 959.082,992.222 959.5,991.5C 960.487,986.695 960.821,981.695 960.5,976.5C 960.554,974.368 961.554,973.035 963.5,972.5 Z"/></g>
<g><path style="opacity:1" fill="#d7552d" d="M 963.5,972.5 C 966.297,971.617 968.963,971.617 971.5,972.5C 972.833,973.833 972.833,975.167 971.5,976.5C 968.976,974.813 966.31,973.48 963.5,972.5 Z"/></g>
<g><path style="opacity:1" fill="#ce392d" d="M 1166.5,973.5 C 1167.5,973.5 1168.5,973.5 1169.5,973.5C 1167.86,992.086 1166.86,992.086 1166.5,973.5 Z"/></g>
<g><path style="opacity:1" fill="#893c1b" d="M 904.5,979.5 C 902.801,979.527 901.467,980.194 900.5,981.5C 898.137,979.998 895.97,980.332 894,982.5C 893.51,981.207 893.343,979.873 893.5,978.5C 897.371,978.185 901.038,978.518 904.5,979.5 Z"/></g>
<g><path style="opacity:1" fill="#5c2412" d="M 962.5,978.5 C 967.833,979.167 967.833,979.833 962.5,980.5C 962.5,979.833 962.5,979.167 962.5,978.5 Z"/></g>
<g><path style="opacity:1" fill="#762c18" d="M 1006.5,972.5 C 1007.78,975.396 1007.78,978.396 1006.5,981.5C 1005.06,979.599 1003.4,979.266 1001.5,980.5C 1001.5,979.833 1001.17,979.5 1000.5,979.5C 1002.22,978.193 1004.06,978.193 1006,979.5C 1006.5,977.19 1006.66,974.857 1006.5,972.5 Z"/></g>
<g><path style="opacity:1" fill="#621e14" d="M 1083.5,981.5 C 1082.84,980.722 1082.01,980.056 1081,979.5C 1080.24,979.57 1079.74,979.903 1079.5,980.5C 1078.96,980.44 1078.62,980.107 1078.5,979.5C 1080.5,978.167 1082.5,978.167 1084.5,979.5C 1084.14,980.183 1083.8,980.85 1083.5,981.5 Z"/></g>
<g><path style="opacity:1" fill="#c55c27" d="M 837.5,973.5 C 838.496,973.414 839.329,973.748 840,974.5C 842.096,980.523 844.596,986.356 847.5,992C 849.112,992.72 850.612,992.554 852,991.5C 852.499,987.514 852.666,983.514 852.5,979.5C 853.822,979.33 854.989,979.663 856,980.5C 858.966,977.735 861.633,978.068 864,981.5C 863.663,985.079 863.496,988.746 863.5,992.5C 865.044,993.728 863.377,993.894 858.5,993C 859.416,992.626 860.25,992.126 861,991.5C 861.667,988.167 861.667,984.833 861,981.5C 859.062,980.14 857.396,980.473 856,982.5C 855.833,984.167 855.667,985.833 855.5,987.5C 855.613,989.641 856.28,991.475 857.5,993C 852.167,993.667 846.833,993.667 841.5,993C 843.82,991.512 843.987,989.679 842,987.5C 837.106,985.195 833.94,986.528 832.5,991.5C 833.025,992.192 833.692,992.692 834.5,993C 832.5,993.667 830.5,993.667 828.5,993C 829.416,992.626 830.25,992.126 831,991.5C 833.459,985.587 835.626,979.587 837.5,973.5 Z"/></g>
<g><path style="opacity:1" fill="#130802" d="M 837.5,977.5 C 838.864,979.22 839.864,981.22 840.5,983.5C 838.833,984.833 837.167,984.833 835.5,983.5C 836.372,981.55 837.039,979.55 837.5,977.5 Z"/></g>
<g><path style="opacity:1" fill="#ca5d28" d="M 866.5,978.5 C 868.993,978.329 870.826,979.329 872,981.5C 872.499,985.152 872.665,988.818 872.5,992.5C 874.044,993.728 872.377,993.894 867.5,993C 869.389,989.164 870.055,984.997 869.5,980.5C 868.127,980.657 866.793,980.49 865.5,980C 866.056,979.617 866.389,979.117 866.5,978.5 Z"/></g>
<g><path style="opacity:1" fill="#fb6e33" d="M 911.5,979.5 C 911.826,983.884 911.492,988.217 910.5,992.5C 909.893,992.376 909.56,992.043 909.5,991.5C 908.911,987.029 909.577,983.029 911.5,979.5 Z"/></g>
<g><path style="opacity:1" fill="#e75c30" d="M 972.5,979.5 C 972.5,983.833 972.5,988.167 972.5,992.5C 974.044,993.728 972.377,993.894 967.5,993C 968.416,992.722 969.082,992.222 969.5,991.5C 969.869,987.232 970.869,983.232 972.5,979.5 Z"/></g>
<g><path style="opacity:1" fill="#c74d29" d="M 985.5,978.5 C 987.993,978.329 989.826,979.329 991,981.5C 991.499,985.152 991.665,988.818 991.5,992.5C 993.044,993.728 991.377,993.894 986.5,993C 988.389,989.164 989.055,984.997 988.5,980.5C 983.684,980.32 981.684,982.653 982.5,987.5C 982.613,989.641 983.28,991.475 984.5,993C 982.167,993.667 979.833,993.667 977.5,993C 978,992.5 978.5,992 979,991.5C 979.499,987.514 979.666,983.514 979.5,979.5C 980.822,979.33 981.989,979.663 983,980.5C 983.995,979.934 984.828,979.267 985.5,978.5 Z"/></g>
<g><path style="opacity:1" fill="#942f1f" d="M 1089.5,985.5 C 1089.42,984.07 1089.75,982.736 1090.5,981.5C 1089.83,980.833 1089.17,980.167 1088.5,979.5C 1090.17,978.167 1091.83,978.167 1093.5,979.5C 1091.98,981.466 1090.64,983.466 1089.5,985.5 Z"/></g>
<g><path style="opacity:1" fill="#cd3c2d" d="M 1142.5,980.5 C 1144.13,977.852 1145.79,977.852 1147.5,980.5C 1147.19,981.308 1146.69,981.975 1146,982.5C 1145.18,981.177 1144.02,980.511 1142.5,980.5 Z"/></g>
<g><path style="opacity:1" fill="#8d3c1c" d="M 921.5,979.5 C 919.869,983.232 918.869,987.232 918.5,991.5C 918.997,987.241 918.331,983.241 916.5,979.5C 918.299,978.212 919.965,978.212 921.5,979.5 Z"/></g>
<g><path style="opacity:1" fill="#7c3419" d="M 960.5,976.5 C 960.821,981.695 960.487,986.695 959.5,991.5C 959.997,987.241 959.331,983.241 957.5,979.5C 958.548,978.452 959.548,977.452 960.5,976.5 Z"/></g>
<g><path style="opacity:1" fill="#532310" d="M 972.5,979.5 C 970.869,983.232 969.869,987.232 969.5,991.5C 969.997,987.241 969.331,983.241 967.5,979.5C 969.299,978.212 970.965,978.212 972.5,979.5 Z"/></g>
<g><path style="opacity:1" fill="#602313" d="M 1055.5,979.5 C 1053.87,983.232 1052.87,987.232 1052.5,991.5C 1053,987.241 1052.33,983.241 1050.5,979.5C 1052.3,978.212 1053.97,978.212 1055.5,979.5 Z"/></g>
<g><path style="opacity:1" fill="#e24f30" d="M 1055.5,979.5 C 1056.15,982.223 1056.15,985.056 1055.5,988C 1055.63,989.981 1056.3,991.647 1057.5,993C 1055.17,993.667 1052.83,993.667 1050.5,993C 1051.42,992.722 1052.08,992.222 1052.5,991.5C 1052.87,987.232 1053.87,983.232 1055.5,979.5 Z"/></g>
<g><path style="opacity:1" fill="#e54e31" d="M 1064.5,981.5 C 1064.82,985.226 1064.49,988.893 1063.5,992.5C 1062.89,992.376 1062.56,992.043 1062.5,991.5C 1062.67,988.15 1062.5,984.817 1062,981.5C 1060.6,980.773 1059.1,980.273 1057.5,980C 1060.41,977.81 1062.74,978.31 1064.5,981.5 Z"/></g>
<g><path style="opacity:1" fill="#ed4934" d="M 1115.5,982.5 C 1115.82,985.898 1115.49,989.232 1114.5,992.5C 1113.89,992.376 1113.56,992.043 1113.5,991.5C 1113.67,988.15 1113.5,984.817 1113,981.5C 1111.6,980.773 1110.1,980.273 1108.5,980C 1111.99,977.622 1114.32,978.455 1115.5,982.5 Z"/></g>
<g><path style="opacity:1" fill="#5a1b13" d="M 1140.5,979.5 C 1138.87,983.232 1137.87,987.232 1137.5,991.5C 1138,987.241 1137.33,983.241 1135.5,979.5C 1137.3,978.212 1138.97,978.212 1140.5,979.5 Z"/></g>
<g><path style="opacity:1" fill="#dd4031" d="M 1140.5,979.5 C 1140.41,981.698 1141.08,982.031 1142.5,980.5C 1140.75,984.227 1140.08,988.227 1140.5,992.5C 1142.04,993.728 1140.38,993.894 1135.5,993C 1136.42,992.722 1137.08,992.222 1137.5,991.5C 1137.87,987.232 1138.87,983.232 1140.5,979.5 Z"/></g>
<g><path style="opacity:1" fill="#ce492c" d="M 1038.5,978.5 C 1045.66,978.155 1048.82,981.488 1048,988.5C 1044.47,994.29 1040.13,994.957 1035,990.5C 1033.59,985.599 1034.76,981.599 1038.5,978.5 Z"/></g>
<g><path style="opacity:1" fill="#090201" d="M 1040.5,979.5 C 1043.95,979.957 1045.62,981.957 1045.5,985.5C 1045.31,987.577 1044.81,989.577 1044,991.5C 1039.23,993.078 1037.06,991.245 1037.5,986C 1037.04,982.993 1038.04,980.827 1040.5,979.5 Z"/></g>
<g><path style="opacity:1" fill="#d13f2d" d="M 1131.5,985.5 C 1130.51,985.672 1129.84,985.338 1129.5,984.5C 1130.89,982.243 1130.22,980.576 1127.5,979.5C 1125.04,980.291 1123.71,981.958 1123.5,984.5C 1123.5,985.167 1123.5,985.833 1123.5,986.5C 1124.78,992.926 1127.78,993.926 1132.5,989.5C 1132.83,989.833 1133.17,990.167 1133.5,990.5C 1129.04,994.733 1124.87,994.399 1121,989.5C 1119.64,983.89 1121.64,980.223 1127,978.5C 1131.14,978.64 1133.14,980.64 1133,984.5C 1132.62,985.056 1132.12,985.389 1131.5,985.5 Z"/></g>
<g><path style="opacity:1" fill="#100401" d="M 1129.5,984.5 C 1127.5,984.5 1125.5,984.5 1123.5,984.5C 1123.71,981.958 1125.04,980.291 1127.5,979.5C 1130.22,980.576 1130.89,982.243 1129.5,984.5 Z"/></g>
<g><path style="opacity:1" fill="#d33c2e" d="M 1159.5,985.5 C 1158.83,985.5 1158.5,985.167 1158.5,984.5C 1158.09,978.809 1156.09,978.143 1152.5,982.5C 1151.17,984.5 1151.17,986.5 1152.5,988.5C 1153.12,991.776 1155.12,993.109 1158.5,992.5C 1152.87,994.42 1149.53,992.253 1148.5,986C 1150.62,978.344 1154.79,976.844 1161,981.5C 1161.84,983.463 1161.34,984.796 1159.5,985.5 Z"/></g>
<g><path style="opacity:1" fill="#0c0301" d="M 1158.5,984.5 C 1155.92,984.975 1153.92,984.308 1152.5,982.5C 1156.09,978.143 1158.09,978.809 1158.5,984.5 Z"/></g>
<g><path style="opacity:1" fill="#da532d" d="M 1000.5,979.5 C 1001.17,979.5 1001.5,979.833 1001.5,980.5C 1000.88,980.611 1000.38,980.944 1000,981.5C 999.333,984.5 999.333,987.5 1000,990.5C 1001.73,991.249 1003.57,991.749 1005.5,992C 999.943,994.634 996.943,992.8 996.5,986.5C 996.159,983.182 997.492,980.848 1000.5,979.5 Z"/></g>
<g><path style="opacity:1" fill="#d65e2b" d="M 904.5,979.5 C 901.844,983.471 899.177,987.471 896.5,991.5C 899.77,993.214 902.27,992.548 904,989.5C 904.49,990.793 904.657,992.127 904.5,993.5C 900.445,993.824 896.445,993.491 892.5,992.5C 895.191,988.815 897.858,985.148 900.5,981.5C 901.467,980.194 902.801,979.527 904.5,979.5 Z"/></g>
<g><path style="opacity:1" fill="#dc5e2d" d="M 930.5,982.5 C 930.82,985.898 930.487,989.232 929.5,992.5C 928.893,992.376 928.56,992.043 928.5,991.5C 928.665,988.15 928.498,984.817 928,981.5C 922.981,980.009 920.815,982.009 921.5,987.5C 921.613,989.641 922.28,991.475 923.5,993C 921.167,993.667 918.833,993.667 916.5,993C 917.416,992.722 918.082,992.222 918.5,991.5C 918.869,987.232 919.869,983.232 921.5,979.5C 921.435,979.938 921.601,980.272 922,980.5C 925.915,977.354 928.748,978.021 930.5,982.5 Z"/></g>
<g><path style="opacity:1" fill="#6c1f17" d="M 1123.5,984.5 C 1125.5,984.5 1127.5,984.5 1129.5,984.5C 1129.84,985.338 1130.51,985.672 1131.5,985.5C 1129.05,986.473 1126.39,986.806 1123.5,986.5C 1123.5,985.833 1123.5,985.167 1123.5,984.5 Z"/></g>
<g><path style="opacity:1" fill="#732118" d="M 1152.5,982.5 C 1153.92,984.308 1155.92,984.975 1158.5,984.5C 1158.5,985.167 1158.83,985.5 1159.5,985.5C 1156.84,985.917 1154.51,986.917 1152.5,988.5C 1151.17,986.5 1151.17,984.5 1152.5,982.5 Z"/></g>
<g><path style="opacity:1" fill="#d15e2a" d="M 880.5,978.5 C 883.272,978.22 885.772,978.887 888,980.5C 887.937,984.982 888.77,989.148 890.5,993C 888.633,993.711 887.133,993.211 886,991.5C 883.582,993.68 880.916,994.013 878,992.5C 877.004,986.666 879.504,984.333 885.5,985.5C 885.829,979.064 883.829,978.064 879.5,982.5C 879.167,982 878.833,981.5 878.5,981C 879.056,979.989 879.722,979.156 880.5,978.5 Z"/></g>
<g><path style="opacity:1" fill="#130803" d="M 881.5,986.5 C 882.833,986.5 884.167,986.5 885.5,986.5C 885.938,990.908 883.938,992.575 879.5,991.5C 879.365,989.446 880.032,987.779 881.5,986.5 Z"/></g>
<g><path style="opacity:1" fill="#c84a2a" d="M 1017.5,978.5 C 1019.88,978.784 1022.04,978.784 1024,978.5C 1024.67,979.833 1024.67,981.167 1024,982.5C 1021.77,978.937 1019.6,978.77 1017.5,982C 1019.29,984.164 1021.46,985.998 1024,987.5C 1024.86,989.749 1024.36,991.582 1022.5,993C 1019.8,993.254 1017.3,993.421 1015,993.5C 1014.33,991.833 1014.33,990.167 1015,988.5C 1017.02,992.974 1019.52,993.474 1022.5,990C 1020.12,988.054 1017.62,986.221 1015,984.5C 1014.03,981.66 1014.87,979.66 1017.5,978.5 Z"/></g>
<g><path style="opacity:1" fill="#cb432b" d="M 1079.5,980.5 C 1079.74,979.903 1080.24,979.57 1081,979.5C 1082.01,980.056 1082.84,980.722 1083.5,981.5C 1084.38,984.301 1085.54,986.968 1087,989.5C 1087.61,987.934 1088.44,986.6 1089.5,985.5C 1088.3,989.578 1086.8,993.578 1085,997.5C 1084.33,998.252 1083.5,998.586 1082.5,998.5C 1083.88,996.918 1084.88,995.085 1085.5,993C 1083.77,988.601 1081.77,984.434 1079.5,980.5 Z"/></g>
<g><path style="opacity:1" fill="#c6362c" d="M 1165.5,990.5 C 1166.98,990.238 1168.31,990.571 1169.5,991.5C 1167.54,994.194 1166.2,993.861 1165.5,990.5 Z"/></g>
<g><path style="opacity:1" fill="#8c3a1c" d="M 911.5,979.5 C 911.904,984.122 912.904,988.622 914.5,993C 911.833,993.667 909.167,993.667 906.5,993C 907.527,992.487 908.527,991.987 909.5,991.5C 909.56,992.043 909.893,992.376 910.5,992.5C 911.492,988.217 911.826,983.884 911.5,979.5 Z"/></g>
<g><path style="opacity:1" fill="#85371a" d="M 930.5,982.5 C 930.93,986.14 931.93,989.64 933.5,993C 930.833,993.667 928.167,993.667 925.5,993C 926.527,992.487 927.527,991.987 928.5,991.5C 928.56,992.043 928.893,992.376 929.5,992.5C 930.487,989.232 930.82,985.898 930.5,982.5 Z"/></g>
<g><path style="opacity:1" fill="#9d3521" d="M 1064.5,981.5 C 1064.92,985.467 1065.92,989.3 1067.5,993C 1065.17,993.667 1062.83,993.667 1060.5,993C 1061.04,992.283 1061.71,991.783 1062.5,991.5C 1062.56,992.043 1062.89,992.376 1063.5,992.5C 1064.49,988.893 1064.82,985.226 1064.5,981.5 Z"/></g>
<g><path style="opacity:1" fill="#9b2d21" d="M 1158.5,992.5 C 1159.12,991.373 1159.96,990.373 1161,989.5C 1161.52,991.489 1160.69,992.489 1158.5,992.5 Z"/></g>
<g><path style="opacity:1" fill="#ce572a" d="M 937.5,997.5 C 941.162,999.134 944.495,998.634 947.5,996C 944.381,994.595 941.048,994.095 937.5,994.5C 936.232,992.33 936.232,990.163 937.5,988C 934.523,983.114 935.856,979.947 941.5,978.5C 942.554,978.68 943.554,979.013 944.5,979.5C 945.935,977.599 947.602,977.266 949.5,978.5C 948.5,979.167 947.5,979.833 946.5,980.5C 948.187,983.903 947.52,986.736 944.5,989C 942.1,989.186 939.766,989.686 937.5,990.5C 940.836,991.24 944.17,991.906 947.5,992.5C 949.386,997.288 947.719,999.622 942.5,999.5C 941.167,999.333 939.833,999.167 938.5,999C 937.944,998.617 937.611,998.117 937.5,997.5 Z"/></g>
<g><path style="opacity:1" fill="#0c0401" d="M 940.5,979.5 C 943.272,979.627 944.605,981.127 944.5,984C 944.36,988.711 942.526,989.545 939,986.5C 938.167,983.829 938.667,981.496 940.5,979.5 Z"/></g>
<g><path style="opacity:1" fill="#902b1e" d="M 1115.5,982.5 C 1115.93,986.14 1116.93,989.64 1118.5,993C 1116.17,993.667 1113.83,993.667 1111.5,993C 1112.04,992.283 1112.71,991.783 1113.5,991.5C 1113.56,992.043 1113.89,992.376 1114.5,992.5C 1115.49,989.232 1115.82,985.898 1115.5,982.5 Z"/></g>
<g><path style="opacity:1" fill="#1c0f07" d="M 937.5,994.5 C 941.048,994.095 944.381,994.595 947.5,996C 944.495,998.634 941.162,999.134 937.5,997.5C 936.167,996.5 936.167,995.5 937.5,994.5 Z"/></g>
<g><path style="opacity:1" fill="#d1442d" d="M 1082.5,998.5 C 1081.43,999.434 1080.1,999.768 1078.5,999.5C 1078.28,998.325 1078.61,997.325 1079.5,996.5C 1080.27,997.612 1081.27,998.279 1082.5,998.5 Z"/></g>
<g><path style="opacity:1" fill="#fc8c30" d="M 693.5,1002.5 C 707.1,1018.77 721.767,1034.1 737.5,1048.5C 737.83,1068.67 737.497,1088.67 736.5,1108.5C 720.619,1096.96 705.952,1083.96 692.5,1069.5C 693.497,1047.34 693.831,1025.01 693.5,1002.5 Z"/></g>
<g><path style="opacity:1" fill="#7f1b1e" d="M 1313.5,1047.5 C 1313.5,1047.17 1313.5,1046.83 1313.5,1046.5C 1314.52,1044.4 1315.85,1043.4 1317.5,1043.5C 1316.48,1045.19 1315.15,1046.52 1313.5,1047.5 Z"/></g>
<g><path style="opacity:1" fill="#fb8530" d="M 737.5,1048.5 C 750.569,1059.58 763.902,1070.24 777.5,1080.5C 776.175,1099.07 776.175,1117.74 777.5,1136.5C 762.958,1128.4 749.291,1119.07 736.5,1108.5C 737.497,1088.67 737.83,1068.67 737.5,1048.5 Z"/></g>
<g><path style="opacity:1" fill="#e13333" d="M 1313.5,1046.5 C 1313.5,1046.83 1313.5,1047.17 1313.5,1047.5C 1290.72,1073.35 1265.05,1095.69 1236.5,1114.5C 1234.97,1114.43 1233.97,1115.09 1233.5,1116.5C 1233.16,1117.34 1232.49,1117.67 1231.5,1117.5C 1229.97,1117.43 1228.97,1118.09 1228.5,1119.5C 1216.26,1127.7 1203.26,1134.7 1189.5,1140.5C 1185.42,1141.38 1181.75,1143.04 1178.5,1145.5C 1178.5,1146.17 1178.17,1146.5 1177.5,1146.5C 1177.17,1146.5 1176.83,1146.5 1176.5,1146.5C 1177.69,1145.04 1177.69,1143.71 1176.5,1142.5C 1184.53,1138.99 1192.53,1135.15 1200.5,1131C 1203.68,1128.91 1206.68,1126.57 1209.5,1124C 1234.89,1111.65 1258.22,1096.32 1279.5,1078C 1290.7,1067.29 1302.04,1056.79 1313.5,1046.5 Z"/></g>
<g><path style="opacity:1" fill="#7f171d" d="M 1281.5,1066.5 C 1283.53,1063.28 1286.2,1061.11 1289.5,1060C 1287.23,1062.78 1284.56,1064.95 1281.5,1066.5 Z"/></g>
<g><path style="opacity:1" fill="#f53339" d="M 1303.5,1063.5 C 1304.49,1070.98 1304.83,1078.65 1304.5,1086.5C 1289.13,1101.68 1272.13,1114.68 1253.5,1125.5C 1253.82,1118.65 1253.49,1111.98 1252.5,1105.5C 1262.61,1098.26 1272.61,1090.76 1282.5,1083C 1289.07,1075.93 1296.07,1069.43 1303.5,1063.5 Z"/></g>
<g><path style="opacity:1" fill="#fb7f31" d="M 777.5,1080.5 C 791.304,1091.31 805.637,1101.31 820.5,1110.5C 820.5,1126.83 820.5,1143.17 820.5,1159.5C 805.364,1153.1 791.031,1145.44 777.5,1136.5C 776.175,1117.74 776.175,1099.07 777.5,1080.5 Z"/></g>
<g><path style="opacity:1" fill="#e33833" d="M 1281.5,1066.5 C 1250.6,1094.35 1215.93,1116.68 1177.5,1133.5C 1178.01,1130.61 1177.34,1128.28 1175.5,1126.5C 1207.55,1111.98 1237.55,1094.15 1265.5,1073C 1270.63,1068.87 1275.47,1064.37 1280,1059.5C 1280.67,1060.17 1280.67,1060.83 1280,1061.5C 1257.35,1083.15 1232.18,1101.32 1204.5,1116C 1204.17,1116.33 1203.83,1116.67 1203.5,1117C 1204.5,1117.67 1205.5,1117.67 1206.5,1117C 1233.04,1102.27 1258.04,1085.44 1281.5,1066.5 Z"/></g>
<g><path style="opacity:1" fill="#fa7832" d="M 820.5,1110.5 C 835.686,1116.93 850.686,1123.6 865.5,1130.5C 865.5,1146.17 865.5,1161.83 865.5,1177.5C 849.88,1172.85 834.88,1166.85 820.5,1159.5C 820.5,1143.17 820.5,1126.83 820.5,1110.5 Z"/></g>
<g><path style="opacity:1" fill="#3d130f" d="M 1236.5,1114.5 C 1236.03,1115.91 1235.03,1116.57 1233.5,1116.5C 1233.97,1115.09 1234.97,1114.43 1236.5,1114.5 Z"/></g>
<g><path style="opacity:1" fill="#581816" d="M 1231.5,1117.5 C 1231.03,1118.91 1230.03,1119.57 1228.5,1119.5C 1228.97,1118.09 1229.97,1117.43 1231.5,1117.5 Z"/></g>
<g><path style="opacity:1" fill="#f63e38" d="M 1252.5,1105.5 C 1253.49,1111.98 1253.82,1118.65 1253.5,1125.5C 1237.47,1137.97 1219.8,1147.81 1200.5,1155C 1193.64,1160.43 1185.97,1164.26 1177.5,1166.5C 1177.5,1159.83 1177.5,1153.17 1177.5,1146.5C 1178.17,1146.5 1178.5,1146.17 1178.5,1145.5C 1182.58,1144.62 1186.25,1142.96 1189.5,1140.5C 1203.26,1134.7 1216.26,1127.7 1228.5,1119.5C 1230.03,1119.57 1231.03,1118.91 1231.5,1117.5C 1232.49,1117.67 1233.16,1117.34 1233.5,1116.5C 1235.03,1116.57 1236.03,1115.91 1236.5,1114.5C 1241.82,1111.53 1247.15,1108.53 1252.5,1105.5 Z"/></g>
<g><path style="opacity:1" fill="#f14935" d="M 1175.5,1126.5 C 1177.34,1128.28 1178.01,1130.61 1177.5,1133.5C 1150.71,1145.1 1123.04,1154.1 1094.5,1160.5C 1094.81,1157.29 1094.48,1154.29 1093.5,1151.5C 1107.08,1148.19 1120.75,1144.69 1134.5,1141C 1139.74,1137.64 1145.4,1135.14 1151.5,1133.5C 1152.17,1134.17 1152.83,1134.83 1153.5,1135.5C 1160.85,1132.49 1168.19,1129.49 1175.5,1126.5 Z"/></g>
<g><path style="opacity:1" fill="#fa6e33" d="M 865.5,1130.5 C 888.648,1139.44 912.315,1146.77 936.5,1152.5C 934.844,1167 935.178,1181.33 937.5,1195.5C 912.765,1191.98 888.765,1185.98 865.5,1177.5C 865.5,1161.83 865.5,1146.17 865.5,1130.5 Z"/></g>
<g><path style="opacity:1" fill="#7b211d" d="M 1189.5,1140.5 C 1186.25,1142.96 1182.58,1144.62 1178.5,1145.5C 1181.75,1143.04 1185.42,1141.38 1189.5,1140.5 Z"/></g>
<g><path style="opacity:1" fill="#5d1d16" d="M 1176.5,1146.5 C 1174.57,1148.29 1172.24,1149.29 1169.5,1149.5C 1171.43,1147.71 1173.76,1146.71 1176.5,1146.5 Z"/></g>
<g><path style="opacity:1" fill="#3b130e" d="M 1169.5,1149.5 C 1168.22,1150.93 1166.55,1151.6 1164.5,1151.5C 1165.78,1150.07 1167.45,1149.4 1169.5,1149.5 Z"/></g>
<g><path style="opacity:1" fill="#270e09" d="M 1164.5,1151.5 C 1161.63,1153.79 1158.3,1155.13 1154.5,1155.5C 1157.53,1153.6 1160.86,1152.26 1164.5,1151.5 Z"/></g>
<g><path style="opacity:1" fill="#f86334" d="M 936.5,1152.5 C 948.691,1154.92 961.024,1156.09 973.5,1156C 986.403,1158.31 999.403,1159.81 1012.5,1160.5C 1014.26,1161.46 1016.26,1161.79 1018.5,1161.5C 1018.5,1164.5 1018.5,1167.5 1018.5,1170.5C 1017.17,1170.5 1015.83,1170.5 1014.5,1170.5C 1002.16,1170.33 989.829,1170.5 977.5,1171C 980.513,1171.5 983.513,1172 986.5,1172.5C 998.819,1173.25 1011.15,1173.59 1023.5,1173.5C 1022.08,1174.45 1020.41,1174.78 1018.5,1174.5C 1018.5,1183.17 1018.5,1191.83 1018.5,1200.5C 991.296,1201.6 964.296,1199.94 937.5,1195.5C 935.178,1181.33 934.844,1167 936.5,1152.5 Z"/></g>
<g><path style="opacity:1" fill="#f35534" d="M 1093.5,1151.5 C 1094.48,1154.29 1094.81,1157.29 1094.5,1160.5C 1086.14,1163.78 1077.47,1165.95 1068.5,1167C 1051.91,1169.26 1035.24,1170.42 1018.5,1170.5C 1018.5,1167.5 1018.5,1164.5 1018.5,1161.5C 1016.26,1161.79 1014.26,1161.46 1012.5,1160.5C 1039.79,1160.05 1066.79,1157.05 1093.5,1151.5 Z"/></g>
<g><path style="opacity:1" fill="#f64a36" d="M 1176.5,1146.5 C 1176.83,1146.5 1177.17,1146.5 1177.5,1146.5C 1177.5,1153.17 1177.5,1159.83 1177.5,1166.5C 1150.84,1178.09 1123.17,1186.75 1094.5,1192.5C 1094.5,1186.5 1094.5,1180.5 1094.5,1174.5C 1105.04,1171.7 1115.71,1168.86 1126.5,1166C 1136.2,1163.16 1145.54,1159.66 1154.5,1155.5C 1158.3,1155.13 1161.63,1153.79 1164.5,1151.5C 1166.55,1151.6 1168.22,1150.93 1169.5,1149.5C 1172.24,1149.29 1174.57,1148.29 1176.5,1146.5 Z"/></g>
<g><path style="opacity:1" fill="#180803" d="M 1154.5,1155.5 C 1145.54,1159.66 1136.2,1163.16 1126.5,1166C 1115.71,1168.86 1105.04,1171.7 1094.5,1174.5C 1085.86,1175.89 1077.2,1176.72 1068.5,1177C 1097.81,1172.34 1126.47,1165.17 1154.5,1155.5 Z"/></g>
<g><path style="opacity:1" fill="#722b17" d="M 1014.5,1170.5 C 1005.17,1171.17 995.833,1171.83 986.5,1172.5C 983.513,1172 980.513,1171.5 977.5,1171C 989.829,1170.5 1002.16,1170.33 1014.5,1170.5 Z"/></g>
<g><path style="opacity:1" fill="#f85935" d="M 1053.5,1171.5 C 1054.19,1179.93 1054.19,1188.93 1053.5,1198.5C 1041.88,1199.87 1030.21,1200.53 1018.5,1200.5C 1018.5,1191.83 1018.5,1183.17 1018.5,1174.5C 1020.41,1174.78 1022.08,1174.45 1023.5,1173.5C 1033.49,1172.74 1043.49,1172.07 1053.5,1171.5 Z"/></g>
<g><path style="opacity:1" fill="#f24f35" d="M 1176.5,1142.5 C 1177.69,1143.71 1177.69,1145.04 1176.5,1146.5C 1173.76,1146.71 1171.43,1147.71 1169.5,1149.5C 1167.45,1149.4 1165.78,1150.07 1164.5,1151.5C 1160.86,1152.26 1157.53,1153.6 1154.5,1155.5C 1126.47,1165.17 1097.81,1172.34 1068.5,1177C 1077.2,1176.72 1085.86,1175.89 1094.5,1174.5C 1094.5,1180.5 1094.5,1186.5 1094.5,1192.5C 1080.91,1195.06 1067.25,1197.06 1053.5,1198.5C 1054.19,1188.93 1054.19,1179.93 1053.5,1171.5C 1103.3,1164.68 1150.97,1150.35 1196.5,1128.5C 1197.7,1128.85 1197.7,1129.35 1196.5,1130C 1184.96,1136.62 1172.96,1142.29 1160.5,1147C 1165.84,1145.85 1171.18,1144.35 1176.5,1142.5 Z"/></g>
</svg>
