<?xml version="1.0" encoding="UTF-8"?>
<!DOCTYPE svg PUBLIC "-//W3C//DTD SVG 1.1//EN" "http://www.w3.org/Graphics/SVG/1.1/DTD/svg11.dtd">
<svg xmlns="http://www.w3.org/2000/svg" version="1.1" width="192px" height="192px" style="shape-rendering:geometricPrecision; text-rendering:geometricPrecision; image-rendering:optimizeQuality; fill-rule:evenodd; clip-rule:evenodd" xmlns:xlink="http://www.w3.org/1999/xlink">
<g><path style="opacity:1" fill="#fefefe" d="M -0.5,-0.5 C 63.5,-0.5 127.5,-0.5 191.5,-0.5C 191.5,63.5 191.5,127.5 191.5,191.5C 127.5,191.5 63.5,191.5 -0.5,191.5C -0.5,127.5 -0.5,63.5 -0.5,-0.5 Z"/></g>
<g><path style="opacity:1" fill="#9fb5a2" d="M 135.5,52.5 C 135.5,45.8333 135.5,39.1667 135.5,32.5C 108.833,32.5 82.1667,32.5 55.5,32.5C 55.176,39.3543 55.5093,46.021 56.5,52.5C 56.44,53.0431 56.1067,53.3764 55.5,53.5C 54.5027,46.1968 54.1694,38.8635 54.5,31.5C 81.8333,31.5 109.167,31.5 136.5,31.5C 136.825,38.6866 136.491,45.6866 135.5,52.5 Z"/></g>
<g><path style="opacity:1" fill="#457149" d="M 135.5,52.5 C 134.51,46.3554 134.177,40.0221 134.5,33.5C 108.5,33.5 82.5,33.5 56.5,33.5C 56.5,39.8333 56.5,46.1667 56.5,52.5C 55.5093,46.021 55.176,39.3543 55.5,32.5C 82.1667,32.5 108.833,32.5 135.5,32.5C 135.5,39.1667 135.5,45.8333 135.5,52.5 Z"/></g>
<g><path style="opacity:1" fill="#b567c0" d="M 84.5,55.5 C 88.5,55.5 92.5,55.5 96.5,55.5C 96.5,62.5 96.5,69.5 96.5,76.5C 91.1667,76.5 85.8333,76.5 80.5,76.5C 80.334,71.1563 80.5006,65.8229 81,60.5C 81.9973,58.6769 83.1639,57.0103 84.5,55.5 Z"/></g>
<g><path style="opacity:1" fill="#f6edf8" d="M 93.5,67.5 C 92.1667,67.5 90.8333,67.5 89.5,67.5C 89.1667,72.8333 88.8333,72.8333 88.5,67.5C 87.5,67.5 86.5,67.5 85.5,67.5C 85.8212,65.9519 86.8212,65.2852 88.5,65.5C 89.1667,60.1667 89.8333,60.1667 90.5,65.5C 92.1788,65.2852 93.1788,65.9519 93.5,67.5 Z"/></g>
<g><path style="opacity:1" fill="#d1a0d8" d="M 103.5,65.5 C 103.791,66.6491 104.624,67.3158 106,67.5C 107.376,67.3158 108.209,66.6491 108.5,65.5C 109.404,66.209 109.737,67.209 109.5,68.5C 107.167,68.5 104.833,68.5 102.5,68.5C 102.263,67.209 102.596,66.209 103.5,65.5 Z"/></g>
<g><path style="opacity:1" fill="#b05ebd" d="M 103.5,65.5 C 105.167,65.5 106.833,65.5 108.5,65.5C 108.209,66.6491 107.376,67.3158 106,67.5C 104.624,67.3158 103.791,66.6491 103.5,65.5 Z"/></g>
<g><path style="opacity:1" fill="#d09ed7" d="M 85.5,67.5 C 86.5,67.5 87.5,67.5 88.5,67.5C 88.8333,72.8333 89.1667,72.8333 89.5,67.5C 90.8333,67.5 92.1667,67.5 93.5,67.5C 92.791,68.404 91.791,68.7373 90.5,68.5C 90.5,69.8333 90.5,71.1667 90.5,72.5C 89.5,72.5 88.5,72.5 87.5,72.5C 87.6347,70.4458 86.968,68.7791 85.5,67.5 Z"/></g>
<g><path style="opacity:1" fill="#c587cd" d="M 104.5,82.5 C 105.5,82.5 106.5,82.5 107.5,82.5C 107.5,83.5 107.5,84.5 107.5,85.5C 106.5,85.5 105.5,85.5 104.5,85.5C 104.5,84.5 104.5,83.5 104.5,82.5 Z"/></g>
<g><path style="opacity:1" fill="#b96fc4" d="M 102.5,87.5 C 104.924,87.1924 107.257,87.5258 109.5,88.5C 108.333,88.8333 107.167,89.1667 106,89.5C 104.319,89.3917 103.152,88.7251 102.5,87.5 Z"/></g>
<g><path style="opacity:1" fill="#ba70c4" d="M 85.5,83.5 C 87.0744,83.9371 88.2411,84.9371 89,86.5C 92.8504,82.7971 93.3504,83.4638 90.5,88.5C 93.3504,93.5362 92.8504,94.2029 89,90.5C 88.1667,91.5 87.3333,92.5 86.5,93.5C 85.3338,91.6351 85.6671,89.9684 87.5,88.5C 86.0499,87.1502 85.3832,85.4835 85.5,83.5 Z"/></g>
<g><path style="opacity:1" fill="#c688ce" d="M 104.5,91.5 C 105.5,91.5 106.5,91.5 107.5,91.5C 107.5,92.5 107.5,93.5 107.5,94.5C 106.5,94.5 105.5,94.5 104.5,94.5C 104.5,93.5 104.5,92.5 104.5,91.5 Z"/></g>
<g><path style="opacity:1" fill="#131f30" d="M 78.5,99.5 C 79.1667,105.5 79.8333,111.5 80.5,117.5C 79.5,118.833 78.5,118.833 77.5,117.5C 78.4896,111.69 78.8229,105.69 78.5,99.5 Z"/></g>
<g><path style="opacity:1" fill="#91969e" d="M 78.5,99.5 C 78.8229,105.69 78.4896,111.69 77.5,117.5C 77.7877,111.771 77.4544,106.104 76.5,100.5C 76.9569,99.7025 77.6236,99.3691 78.5,99.5 Z"/></g>
<g><path style="opacity:1" fill="#424c59" d="M 112.5,107.5 C 113.482,110.962 113.815,114.629 113.5,118.5C 110.975,119.892 108.808,119.558 107,117.5C 106.762,113.778 106.262,110.111 105.5,106.5C 106.325,105.614 107.325,105.281 108.5,105.5C 108.207,109.437 108.54,113.27 109.5,117C 110.449,117.617 111.282,117.451 112,116.5C 112.498,113.518 112.665,110.518 112.5,107.5 Z"/></g>
<g><path style="opacity:1" fill="#162333" d="M 112.5,107.5 C 112.56,106.957 112.893,106.624 113.5,106.5C 114.809,110.649 114.809,114.649 113.5,118.5C 113.815,114.629 113.482,110.962 112.5,107.5 Z"/></g>
<g><path style="opacity:1" fill="#a5aab0" d="M 117.5,117.5 C 118.833,118.833 120.167,118.833 121.5,117.5C 122.043,117.56 122.376,117.893 122.5,118.5C 119.355,119.803 116.355,119.803 113.5,118.5C 114.809,114.649 114.809,110.649 113.5,106.5C 112.893,106.624 112.56,106.957 112.5,107.5C 111.957,107.44 111.624,107.107 111.5,106.5C 112.689,105.571 114.022,105.238 115.5,105.5C 114.911,109.971 115.577,113.971 117.5,117.5 Z"/></g>
<g><path style="opacity:1" fill="#3a4452" d="M 125.5,107.5 C 125.56,106.957 125.893,106.624 126.5,106.5C 127.167,109.642 127.834,112.642 128.5,115.5C 129.077,117.652 130.244,117.985 132,116.5C 132.752,113.106 132.585,109.773 131.5,106.5C 132.325,105.614 133.325,105.281 134.5,105.5C 134.641,110.348 134.641,115.015 134.5,119.5C 132.129,118.987 129.796,118.653 127.5,118.5C 126.896,114.697 126.23,111.031 125.5,107.5 Z"/></g>
<g><path style="opacity:1" fill="#57606b" d="M 128.5,115.5 C 127.834,112.642 127.167,109.642 126.5,106.5C 125.893,106.624 125.56,106.957 125.5,107.5C 124.778,107.918 124.278,108.584 124,109.5C 123.296,107.273 122.129,106.94 120.5,108.5C 119.994,106.895 119.327,106.561 118.5,107.5C 116.091,106.992 116.258,106.326 119,105.5C 122,105.786 125.166,105.786 128.5,105.5C 128.5,108.833 128.5,112.167 128.5,115.5 Z"/></g>
<g><path style="opacity:1" fill="#2c3746" d="M 120.5,108.5 C 120.19,111.713 120.523,114.713 121.5,117.5C 120.167,118.833 118.833,118.833 117.5,117.5C 118.479,114.375 118.813,111.042 118.5,107.5C 119.327,106.561 119.994,106.895 120.5,108.5 Z"/></g>
<g><path style="opacity:1" fill="#636c77" d="M 74.5,107.5 C 73.8333,110.5 73.1667,113.5 72.5,116.5C 72.7148,114.821 72.0481,113.821 70.5,113.5C 70.5,112.833 70.1667,112.5 69.5,112.5C 70.209,111.596 71.209,111.263 72.5,111.5C 72.5,109.833 72.5,108.167 72.5,106.5C 71.5,106.5 70.5,106.5 69.5,106.5C 69.719,107.675 69.3857,108.675 68.5,109.5C 67.269,108.349 67.269,107.183 68.5,106C 70.9894,105.059 72.9894,105.559 74.5,107.5 Z"/></g>
<g><path style="opacity:1" fill="#3a4452" d="M 85.5,105.5 C 87.1667,105.5 88.8333,105.5 90.5,105.5C 90.6567,106.873 90.49,108.207 90,109.5C 88.8567,106.085 87.19,105.751 85,108.5C 84.2716,111.23 84.4383,113.897 85.5,116.5C 87.3381,117.189 89.0048,117.522 90.5,117.5C 88.287,120.08 86.1203,120.08 84,117.5C 81.6603,113.052 82.1603,109.052 85.5,105.5 Z"/></g>
<g><path style="opacity:1" fill="#2e3947" d="M 100.5,112.5 C 101.209,111.596 102.209,111.263 103.5,111.5C 103.795,113.735 103.461,115.735 102.5,117.5C 101.833,115.833 101.167,114.167 100.5,112.5 Z"/></g>
<g><path style="opacity:1" fill="#333e4c" d="M 97.5,117.5 C 97.5,118.167 97.1667,118.5 96.5,118.5C 95.2058,117.71 94.0391,116.71 93,115.5C 92.3333,111.833 92.3333,108.167 93,104.5C 95.3255,100.49 98.6588,99.4901 103,101.5C 103.781,102.944 103.614,104.277 102.5,105.5C 101.571,104.311 101.238,102.978 101.5,101.5C 98.6755,101.081 96.5088,102.081 95,104.5C 94.3333,107.833 94.3333,111.167 95,114.5C 95.3768,115.942 96.2101,116.942 97.5,117.5 Z"/></g>
<g><path style="opacity:1" fill="#374250" d="M 58.5,100.5 C 60.8568,100.337 63.1902,100.503 65.5,101C 66.8486,102.635 66.6819,104.135 65,105.5C 64.51,104.207 64.3433,102.873 64.5,101.5C 61.6755,101.081 59.5088,102.081 58,104.5C 57.1462,108.625 57.4796,112.625 59,116.5C 61.4739,117.465 63.9739,117.632 66.5,117C 61.9383,120.818 58.4383,119.985 56,114.5C 54.8058,109.369 55.6391,104.702 58.5,100.5 Z"/></g>
<g><path style="opacity:1" fill="#333e4c" d="M 74.5,107.5 C 74.1872,111.042 74.5206,114.375 75.5,117.5C 75.1583,118.338 74.4916,118.672 73.5,118.5C 68.3964,120.565 66.563,118.899 68,113.5C 68.3826,112.944 68.8826,112.611 69.5,112.5C 70.1667,112.5 70.5,112.833 70.5,113.5C 69.5655,114.568 69.2322,115.901 69.5,117.5C 70.791,117.737 71.791,117.404 72.5,116.5C 73.1667,113.5 73.8333,110.5 74.5,107.5 Z"/></g>
<g><path style="opacity:1" fill="#f2f2f3" d="M 70.5,113.5 C 72.0481,113.821 72.7148,114.821 72.5,116.5C 71.791,117.404 70.791,117.737 69.5,117.5C 69.2322,115.901 69.5655,114.568 70.5,113.5 Z"/></g>
<g><path style="opacity:1" fill="#9ea3aa" d="M 75.5,117.5 C 76.1667,117.5 76.8333,117.5 77.5,117.5C 78.5,118.833 79.5,118.833 80.5,117.5C 81.0431,117.56 81.3764,117.893 81.5,118.5C 78.6908,119.8 76.0241,119.8 73.5,118.5C 74.4916,118.672 75.1583,118.338 75.5,117.5 Z"/></g>
<g><path style="opacity:1" fill="#707781" d="M 100.5,112.5 C 101.167,114.167 101.833,115.833 102.5,117.5C 100.68,119.461 98.68,119.794 96.5,118.5C 97.1667,118.5 97.5,118.167 97.5,117.5C 98.5,117.5 99.5,117.5 100.5,117.5C 100.5,115.833 100.5,114.167 100.5,112.5 Z"/></g>
<g><path style="opacity:1" fill="#a3a8ae" d="M 89.5,129.5 C 88.8333,129.5 88.1667,129.5 87.5,129.5C 85.1667,129.5 82.8333,129.5 80.5,129.5C 80.0101,127.052 80.8434,125.385 83,124.5C 84.4162,125.573 85.7496,125.573 87,124.5C 89.3333,127.167 91.6667,127.167 94,124.5C 95.7998,126.831 97.7998,126.831 100,124.5C 100.333,125.167 100.667,125.833 101,126.5C 103.381,125.565 105.881,125.232 108.5,125.5C 108.5,126.833 108.5,128.167 108.5,129.5C 102.167,129.5 95.8333,129.5 89.5,129.5 Z"/></g>
<g><path style="opacity:1" fill="#c5c4a8" d="M 87.5,129.5 C 88.1667,129.5 88.8333,129.5 89.5,129.5C 89.4614,130.756 89.9614,131.756 91,132.5C 92.1169,132.335 93.2836,132.002 94.5,131.5C 95.731,132.651 95.731,133.817 94.5,135C 89.8452,135.499 85.1785,135.666 80.5,135.5C 80.5,134.167 80.5,132.833 80.5,131.5C 82.1439,131.286 83.6439,131.62 85,132.5C 86.417,131.922 87.2504,130.922 87.5,129.5 Z"/></g>
<g><path style="opacity:1" fill="#c5c4a7" d="M 104.5,130.5 C 105.222,130.918 105.722,131.584 106,132.5C 107.494,131.253 108.994,131.253 110.5,132.5C 110.167,133.167 109.833,133.833 109.5,134.5C 105.508,135.347 101.675,135.68 98,135.5C 96.3831,134.464 96.2164,133.297 97.5,132C 100.036,131.814 102.369,131.314 104.5,130.5 Z"/></g>
<g><path style="opacity:1" fill="#9fb5a2" d="M 56.5,138.5 C 55.5093,144.979 55.176,151.646 55.5,158.5C 82.1667,158.5 108.833,158.5 135.5,158.5C 135.5,151.833 135.5,145.167 135.5,138.5C 136.491,145.313 136.825,152.313 136.5,159.5C 109.167,159.5 81.8333,159.5 54.5,159.5C 54.1694,152.137 54.5027,144.803 55.5,137.5C 56.1067,137.624 56.44,137.957 56.5,138.5 Z"/></g>
<g><path style="opacity:1" fill="#457149" d="M 56.5,138.5 C 56.5,144.833 56.5,151.167 56.5,157.5C 82.5,157.5 108.5,157.5 134.5,157.5C 134.177,150.978 134.51,144.645 135.5,138.5C 135.5,145.167 135.5,151.833 135.5,158.5C 108.833,158.5 82.1667,158.5 55.5,158.5C 55.176,151.646 55.5093,144.979 56.5,138.5 Z"/></g>
</svg>
